<svg version="1.1" id="Layer_1" xmlns="http://www.w3.org/2000/svg" xmlns:xlink="http://www.w3.org/1999/xlink" x="0px" y="0px"
	 width="100%" viewBox="0 0 496 496" enable-background="new 0 0 496 496" xml:space="preserve">
<path fill="#000000" opacity="1.000000" stroke="none" 
	d="
M329.025330,113.049805 
	C327.889832,110.188782 326.121765,107.862221 323.532410,106.120087 
	C321.720978,104.901337 320.028412,103.362328 319.231323,101.334747 
	C313.443817,86.612785 301.277954,77.248459 290.332062,66.902016 
	C283.175934,60.137814 275.192108,54.375504 266.902069,49.054413 
	C266.082947,48.528641 265.131134,48.070129 264.961121,46.828720 
	C265.703949,45.226009 267.200317,45.794876 268.395660,45.899895 
	C354.228333,53.441010 423.336121,111.901337 447.668976,190.357483 
	C456.496948,218.821396 458.054993,247.823669 455.223785,277.251709 
	C454.916626,280.444397 454.026093,283.178009 450.050232,283.326538 
	C448.660126,283.378448 447.520386,284.154144 446.587097,285.145630 
	C445.292816,286.520569 444.226288,288.085358 444.878571,290.068024 
	C445.544067,292.090912 447.367920,291.939850 449.056732,291.950562 
	C449.864685,291.955658 450.671906,292.081055 451.450775,292.149475 
	C452.825531,294.581390 451.562347,296.418823 450.759644,298.250610 
	C448.136993,299.293091 445.851349,296.658173 443.371582,297.915375 
	C442.957825,298.125153 442.619202,298.483124 442.185486,298.819427 
	C443.671326,301.759583 446.719116,301.296906 450.000244,302.541718 
	C446.534729,318.442230 440.378021,333.406921 432.642090,347.666107 
	C410.301666,388.844757 377.970856,419.611450 335.156189,438.855042 
	C292.379791,458.081451 247.917313,461.621887 202.397125,451.057068 
	C181.490662,446.204895 161.793976,438.106262 142.612244,425.806519 
	C146.311981,424.497253 148.795563,424.801483 151.186600,424.899109 
	C178.910400,426.031189 205.469498,420.765808 231.197021,410.649811 
	C234.695160,409.274353 237.205399,407.400543 238.369797,403.699554 
	C245.084000,382.358521 246.666138,360.695404 242.710602,338.647583 
	C241.909500,334.182220 239.445480,330.405762 237.401794,326.218018 
	C247.648758,328.593781 253.561813,341.980194 254.298462,363.983673 
	C255.644714,361.775940 257.424011,360.760895 259.693054,361.849854 
	C261.790070,362.856171 262.399506,365.081146 261.910706,366.987122 
	C261.102264,370.139557 262.333893,371.529388 265.029724,372.660583 
	C267.189087,373.566681 269.221588,375.078766 269.985077,377.379425 
	C272.571381,385.172821 273.489746,394.190857 270.369476,400.861084 
	C265.875671,410.467499 268.247681,419.020416 269.204163,428.148163 
	C269.501282,430.983093 270.792145,431.741638 273.406006,431.719086 
	C283.541656,431.631561 293.678558,431.683502 303.835815,431.401520 
	C300.725403,429.990112 297.395905,430.356171 294.148621,430.299133 
	C291.704559,430.256256 290.058044,429.581940 289.315460,427.000580 
	C285.444641,413.544617 282.499512,399.932556 281.638153,385.908752 
	C281.432343,382.558105 282.675629,380.397491 285.262756,378.306183 
	C295.137115,370.324005 303.969788,361.246124 312.134827,351.535828 
	C314.676025,348.513733 317.366455,345.605347 318.124756,341.352448 
	C318.565979,338.877686 320.914917,337.749695 323.506409,337.727478 
	C327.005920,337.697510 330.549622,337.342041 333.996674,337.762817 
	C342.542145,338.805878 351.127594,338.122833 359.750153,338.252380 
	C351.141754,336.930328 342.533142,335.609436 333.925079,334.284973 
	C332.611206,334.082825 331.145111,334.173157 330.011780,333.604919 
	C321.362823,329.268555 312.610474,331.792633 304.122742,333.637482 
	C295.302521,335.554626 286.994659,339.154327 280.367798,345.732056 
	C279.809021,346.286713 278.986237,346.575378 278.292419,346.983887 
	C273.381104,339.536407 274.592590,334.864532 282.081421,331.101257 
	C290.402039,326.919983 299.574158,325.854919 308.456757,323.764313 
	C311.641541,323.014740 314.671570,321.381439 318.138794,321.611115 
	C318.801208,324.068054 315.868164,323.621490 315.446716,325.222351 
	C317.460175,325.420837 319.447357,325.491302 321.387939,325.829437 
	C330.453857,327.409210 328.983276,328.585632 334.416504,318.605316 
	C337.595001,312.766724 340.345947,306.692535 343.204315,300.683929 
	C344.181274,298.630280 345.277039,297.424683 347.824310,298.254608 
	C349.527985,298.809753 351.396729,298.858124 352.384094,299.009460 
	C344.225403,292.473877 333.301727,291.975555 323.023865,289.451752 
	C322.068298,289.217102 321.114899,288.952728 320.194000,288.611664 
	C319.950714,288.521545 319.832642,288.093475 319.466675,287.524628 
	C321.028351,285.237549 323.211487,285.541565 325.499695,286.121063 
	C331.142395,287.550201 336.771179,289.043121 342.446533,290.329590 
	C344.522278,290.800110 347.163544,291.790588 347.771637,288.245728 
	C347.393951,287.886017 347.203003,287.567810 346.931366,287.466858 
	C344.671265,286.626953 340.814301,288.945496 340.250336,285.096619 
	C339.727905,281.531219 341.405579,277.826569 344.784088,276.245331 
	C352.209076,272.770264 358.820770,267.653992 366.948700,265.549652 
	C369.638123,264.853363 371.838806,265.626251 374.490051,266.326385 
	C372.014008,262.962097 374.984680,262.716278 376.747131,262.064941 
	C385.843048,258.703217 394.647614,254.787476 402.558136,249.082062 
	C402.942993,248.804489 403.273987,248.452164 403.435730,247.687363 
	C398.463989,250.390411 392.959259,251.527664 387.871094,254.102524 
	C378.362946,258.914124 368.164154,262.170746 358.110931,265.716888 
	C354.921448,266.841949 354.745178,264.181488 354.041077,262.301880 
	C344.730408,264.743652 336.735168,269.250732 327.538208,272.390747 
	C328.133301,267.755493 330.032593,265.247894 333.729523,264.099487 
	C343.816864,260.965851 353.085999,255.455460 364.265259,254.078461 
	C361.134644,249.864227 357.237183,249.173584 352.995941,249.335617 
	C348.601776,249.503464 344.850800,248.394592 342.433655,244.372391 
	C346.288818,240.844650 349.360870,241.057510 356.624756,245.325714 
	C356.312958,243.155838 353.543945,242.729736 353.712585,240.527100 
	C354.349396,238.824219 355.906311,238.769028 357.395264,238.721985 
	C365.999420,238.450043 368.886536,233.606064 365.008759,225.854568 
	C363.158478,224.912476 362.165283,227.385727 360.456970,227.038010 
	C359.361755,226.426041 360.024933,225.193588 359.525421,224.377991 
	C359.201447,225.920242 359.050446,227.529144 358.491638,228.981094 
	C357.898285,230.522888 356.952209,231.952484 354.662811,232.343704 
	C354.018829,229.798080 350.400299,230.232422 349.684265,227.989243 
	C348.777069,225.147095 349.943634,222.296371 352.214294,220.325516 
	C353.947418,218.821213 355.332520,217.796509 358.595215,218.846558 
	C361.676666,219.838318 366.725220,220.092422 370.368713,216.044708 
	C363.419830,212.012161 354.888824,215.435303 348.415039,210.633179 
	C350.140686,205.607941 355.157990,207.289703 358.383179,205.532471 
	C357.628510,203.310791 354.668945,203.687698 354.083801,201.349396 
	C354.186310,199.416290 355.792786,198.767639 357.370209,198.256607 
	C364.012177,196.104889 364.961884,193.903198 361.942322,187.397339 
	C360.509399,186.317825 359.173950,188.378784 357.393768,187.483871 
	C356.838135,184.876419 356.260101,182.150543 355.675781,179.426010 
	C355.213196,177.269028 356.812866,176.619308 358.236847,175.700500 
	C361.523071,173.580154 364.628082,171.058502 364.204407,166.702423 
	C364.010681,164.710678 356.304016,164.454437 352.531860,166.419693 
	C350.644226,167.403152 349.028687,168.913254 347.303223,170.202744 
	C343.394012,173.124176 339.518982,173.100494 335.255798,170.247910 
	C337.626770,166.455872 343.314453,169.149963 344.821014,164.693619 
	C344.150848,162.946991 341.896545,163.211548 340.816467,161.417130 
	C343.090088,157.123260 350.918518,159.171539 351.326477,152.016251 
	C350.930328,150.290939 346.927185,151.043121 347.060272,147.566864 
	C350.282623,145.954300 354.965088,146.609146 357.302979,141.980072 
	C349.843597,136.907318 340.008179,145.352173 333.065582,137.984253 
	C333.394226,134.468369 337.142792,134.429169 338.355621,132.570633 
	C341.627838,123.095718 333.596954,119.205460 329.235687,113.196892 
	C328.996063,113.010315 329.025330,113.049805 329.025330,113.049805 
M251.715363,411.731995 
	C251.533035,409.521973 252.006836,407.148651 250.100967,404.948059 
	C247.810226,410.247864 246.010956,415.404816 243.419800,420.127350 
	C240.798859,424.904175 238.380722,430.303986 231.702377,431.275024 
	C236.227951,431.703583 240.634567,431.707397 245.041183,431.702667 
	C250.639771,431.696655 252.840286,429.709656 252.798538,424.001678 
	C252.770752,420.203918 252.115555,416.410706 251.715363,411.731995 
M373.381134,154.049759 
	C370.503601,161.661880 371.886322,168.827209 377.096893,173.304947 
	C383.693512,170.536285 384.400269,161.216583 381.630798,154.613052 
	C380.842194,152.732651 380.639496,149.947510 378.071411,149.752243 
	C375.925629,149.589096 374.892120,151.816666 373.381134,154.049759 
M401.515228,169.886368 
	C403.739441,166.737335 405.476746,162.430984 402.494843,160.066360 
	C399.396271,157.609222 395.285980,160.173126 392.233032,162.653107 
	C389.606323,164.786835 388.900177,167.894272 388.445160,171.012451 
	C388.088074,173.459839 389.281097,174.726547 391.841156,174.671936 
	C395.527863,174.593292 398.498627,173.018616 401.515228,169.886368 
M436.651093,271.042755 
	C441.142883,272.073547 445.589203,272.517120 449.522461,269.409851 
	C451.600494,267.768219 453.001556,265.379425 452.343536,262.877167 
	C451.707672,260.459045 448.922302,260.595673 446.833130,260.389862 
	C444.001221,260.110901 441.147034,260.196655 438.537933,261.588745 
	C434.624451,263.676880 433.601959,267.327820 436.651093,271.042755 
M392.053711,213.798569 
	C382.695221,214.388916 378.213287,222.262283 382.222351,231.069199 
	C391.762177,229.335403 395.713379,222.943192 392.053711,213.798569 
M377.238586,185.701630 
	C376.321228,187.425812 374.985596,189.017334 375.414520,191.174423 
	C385.890930,193.743347 392.372498,190.647629 394.698608,182.023117 
	C388.465302,178.898865 383.044525,179.892075 377.238586,185.701630 
M400.444183,184.196121 
	C399.309387,186.143875 399.132812,188.287460 399.203308,190.468246 
	C399.256622,192.118118 399.756531,193.600952 401.760590,193.372589 
	C405.993256,192.890244 410.015839,191.812408 412.233093,187.658951 
	C413.675873,184.956268 414.907043,181.713989 412.748962,179.260147 
	C410.690155,176.919159 407.733887,178.947922 405.306763,179.737976 
	C403.398895,180.359009 401.882599,181.756119 400.444183,184.196121 
M360.485016,137.322144 
	C361.209534,139.511383 361.773010,141.773148 362.714844,143.864517 
	C363.348816,145.272293 363.855164,147.281540 365.911530,147.205582 
	C367.768738,147.136978 368.483276,145.329590 369.478516,144.043503 
	C372.804535,139.745422 371.398865,131.036194 366.489014,127.114365 
	C362.442352,129.522690 361.820129,130.494354 360.485016,137.322144 
M419.909607,202.458435 
	C421.241516,200.193207 425.232391,197.756973 420.769745,195.385544 
	C414.708435,192.164581 404.810730,196.249207 404.911346,204.150497 
	C409.926361,206.487106 414.748657,206.230133 419.909607,202.458435 
M426.261658,208.927231 
	C424.866638,214.040436 426.073792,219.916275 428.653229,220.568176 
	C431.459747,221.277481 436.197083,216.581253 436.439056,212.270172 
	C436.619049,209.063583 436.735046,204.917816 433.293701,203.637451 
	C430.172302,202.476151 428.037689,205.522446 426.261658,208.927231 
M346.062897,105.894821 
	C340.009094,111.180588 339.421173,118.672028 344.647430,123.931541 
	C351.600281,119.193565 352.528107,110.883888 346.062897,105.894821 
M387.471527,362.815643 
	C383.360474,360.930542 379.221649,360.313232 374.605011,361.956635 
	C380.199249,369.851044 387.931824,372.678406 395.182037,369.767731 
	C393.902832,366.393494 390.923798,364.885986 387.471527,362.815643 
M350.482849,292.414398 
	C357.077332,292.804291 361.995667,290.538208 363.352234,286.228607 
	C363.980225,284.233612 364.825775,281.705902 361.208984,281.506470 
	C354.926147,281.160004 350.278107,285.505249 350.482849,292.414398 
M372.430725,288.975677 
	C371.048187,291.223785 368.835449,294.006531 371.250153,296.069733 
	C373.730377,298.188904 376.888977,296.430634 379.432526,294.722412 
	C379.970764,294.360962 380.418976,293.836792 380.835449,293.327728 
	C382.512787,291.277405 383.677551,288.679291 382.196136,286.477692 
	C380.522797,283.990845 377.978882,285.932037 375.899292,286.653076 
	C374.834442,287.022278 373.919006,287.822388 372.430725,288.975677 
M413.852631,290.599731 
	C412.557983,287.065460 407.892883,286.884125 404.844421,290.485260 
	C403.115082,292.528107 401.595734,295.432373 403.452820,297.716949 
	C405.463654,300.190552 408.266876,298.714020 410.549652,297.168854 
	C412.598785,295.781830 413.770813,293.880341 413.852631,290.599731 
M367.579926,315.463043 
	C365.890411,308.878357 363.016113,306.300598 356.882538,305.929871 
	C355.742676,308.063477 356.330017,310.080078 357.399567,312.025604 
	C359.848419,316.479980 364.162903,318.225769 367.579926,315.463043 
M382.904633,311.708527 
	C380.574219,308.748413 377.768951,306.812836 373.770782,307.185455 
	C373.531952,314.609772 378.008545,319.171570 384.509613,318.386780 
	C385.068390,316.179657 384.564209,314.175537 382.904633,311.708527 
M387.279205,201.904724 
	C386.255585,204.426468 385.165497,207.526367 387.989594,208.969147 
	C390.256531,210.127258 392.660645,208.061203 394.189819,205.983582 
	C396.212677,203.235199 396.161438,200.245346 394.973083,196.912384 
	C391.531860,196.958923 389.294708,198.618454 387.279205,201.904724 
M327.287048,105.189301 
	C328.835480,108.301857 330.367889,111.430664 334.201691,112.337570 
	C337.043427,106.537193 334.627380,101.161705 327.838196,98.003685 
	C326.511719,100.044418 325.869293,102.136459 327.287048,105.189301 
M419.208588,213.219177 
	C419.127502,211.432556 419.487000,209.225571 417.349304,208.555145 
	C415.267365,207.902222 413.453674,209.253281 412.105499,210.737747 
	C409.454102,213.657333 409.699707,216.929245 411.189880,220.501251 
	C415.357239,219.843033 418.258881,218.164505 419.208588,213.219177 
M395.489868,295.890259 
	C397.913055,293.784454 398.939087,290.918396 397.244385,288.331726 
	C395.670319,285.929138 393.219238,287.854065 391.525574,288.942841 
	C387.908722,291.267883 387.441925,294.551971 389.116516,298.302216 
	C391.571777,298.551971 393.192902,297.323334 395.489868,295.890259 
M413.685974,333.357300 
	C416.144897,332.033447 418.014130,330.365509 417.399475,327.206146 
	C410.992401,325.893860 406.271942,328.676910 405.327148,334.329865 
	C407.973511,335.148499 410.497375,334.675598 413.685974,333.357300 
M345.187714,135.669830 
	C351.500885,137.752075 355.950775,135.640686 357.046906,130.042831 
	C349.968811,128.071030 346.358429,129.570847 345.187714,135.669830 
M392.207397,144.652969 
	C389.484314,145.905960 387.626099,147.848862 387.398468,150.968445 
	C387.278687,152.610275 387.119415,154.851059 389.024628,155.154007 
	C392.162384,155.652954 394.522827,153.569244 395.258972,150.768814 
	C395.838806,148.562973 397.793793,144.983536 392.207397,144.652969 
M363.100922,151.506317 
	C360.329346,152.678848 358.544983,154.670578 357.923584,157.662643 
	C357.658844,158.937241 356.941162,160.377731 358.284180,161.307495 
	C359.639465,162.245758 361.144958,161.642288 362.497345,160.955551 
	C365.231720,159.567047 366.692871,157.364334 366.762909,154.255859 
	C366.808929,152.212967 366.002319,151.111176 363.100922,151.506317 
M419.971527,183.252533 
	C417.919159,185.090134 414.581055,187.266327 417.350616,189.938782 
	C419.618225,192.126846 423.053528,190.354996 425.318726,188.131546 
	C426.587585,186.886078 427.782532,185.402985 427.144012,182.894180 
	C425.086426,182.049576 422.889069,182.087952 419.971527,183.252533 
M423.661255,286.351166 
	C419.901581,287.721710 418.668030,290.529053 419.539581,294.215546 
	C419.956757,295.979858 421.525635,295.585968 422.826202,295.132751 
	C426.149231,293.974823 428.060913,291.848175 427.791595,288.097870 
	C427.609772,285.565826 426.171051,285.613678 423.661255,286.351166 
M406.766266,172.215073 
	C410.414734,175.669357 412.690277,172.805664 414.810608,170.289871 
	C416.040466,168.830643 416.371857,166.677841 415.093384,165.203934 
	C413.523407,163.393951 411.700165,164.934677 410.171661,165.774399 
	C407.954163,166.992676 407.092865,169.154633 406.766266,172.215073 
M434.454712,283.290802 
	C432.788361,285.943237 432.552979,288.655762 434.758057,291.030884 
	C435.879456,292.238708 437.289673,291.297394 438.304718,290.429047 
	C440.766571,288.322906 441.204102,285.741394 439.884247,282.800964 
	C439.538574,282.030823 439.264282,281.261993 438.215790,280.963257 
	C436.896271,280.972565 435.896576,281.835175 434.454712,283.290802 
M259.466095,411.124359 
	C258.315887,417.618591 262.036346,424.508087 257.484589,430.633972 
	C259.639160,432.105774 261.412201,431.983856 263.313049,430.829651 
	C263.641479,427.322296 260.779724,424.736938 260.723114,421.406677 
	C260.664337,417.947968 260.583679,414.489502 260.466858,411.032471 
	C260.461914,410.886414 259.994934,410.755951 259.466095,411.124359 
M328.550659,354.209595 
	C331.348053,353.544037 333.208099,351.797089 334.250336,349.168365 
	C334.848694,347.659241 334.728210,346.126007 333.433838,345.084625 
	C331.946960,343.888458 330.467621,344.877991 329.431671,345.853088 
	C326.988068,348.153229 325.418152,350.784302 328.550659,354.209595 
M342.275208,360.213623 
	C345.955200,355.860687 345.621979,353.110229 341.031464,349.947754 
	C337.023865,353.876953 337.172089,356.491272 342.275208,360.213623 
M420.534088,305.409973 
	C418.269775,305.200623 417.274658,305.991089 418.524231,308.210571 
	C420.659790,312.003693 424.065460,313.231506 428.503693,313.293213 
	C427.718628,308.589142 424.730743,306.800049 420.534088,305.409973 
M366.546234,362.276642 
	C363.549622,361.174011 362.659821,362.651337 363.630524,365.141174 
	C365.131653,368.991669 368.204529,370.393066 372.478210,369.782288 
	C372.500214,365.778809 370.259003,363.829071 366.546234,362.276642 
M370.394196,350.271393 
	C369.129883,345.296387 365.577179,343.784821 360.834717,343.412964 
	C361.397888,349.373077 364.243439,351.483490 370.394196,350.271393 
M353.451904,365.969086 
	C355.561096,367.062073 356.656830,366.251770 356.704559,364.046478 
	C356.790924,360.058044 354.860352,357.587616 350.842255,356.586151 
	C347.998749,360.545685 350.155212,363.137238 353.451904,365.969086 
M392.528046,343.942932 
	C390.875641,343.427277 389.253235,342.348541 387.486359,343.586121 
	C388.546631,349.381836 391.378204,351.299744 397.054169,350.050995 
	C397.082367,347.222595 395.245361,345.668579 392.528046,343.942932 
M368.183105,200.361557 
	C373.599976,203.049637 377.338898,202.280136 379.610596,197.919937 
	C375.285858,195.567047 371.446075,195.977310 368.183105,200.361557 
M369.147461,190.035278 
	C373.432892,187.041122 373.278442,183.560791 370.462769,179.670776 
	C365.405396,182.248184 364.840332,185.543686 369.147461,190.035278 
M355.830017,125.252029 
	C359.071716,123.853912 360.698792,121.522636 360.253784,117.585388 
	C356.981354,116.900261 354.517578,117.791519 353.218201,120.753143 
	C352.354980,122.720642 350.795166,125.456139 355.830017,125.252029 
M376.001984,224.611969 
	C375.607513,223.705917 375.182770,222.458511 374.054382,222.746735 
	C371.229248,223.468353 370.361328,225.759048 370.303589,228.398346 
	C370.268097,230.019333 370.098846,232.181259 372.215485,232.372757 
	C374.893219,232.615036 375.545197,230.097763 376.242340,228.124084 
	C376.544037,227.270004 376.271027,226.212921 376.001984,224.611969 
M381.540314,347.835602 
	C379.275696,345.917114 376.947906,344.287323 373.752441,345.832306 
	C375.517731,351.366699 377.937988,352.910156 383.045380,351.990906 
	C383.513428,350.550842 382.607330,349.510193 381.540314,347.835602 
M405.388733,310.402771 
	C407.642120,313.856781 410.659302,315.557770 414.955688,314.789185 
	C413.479187,310.604218 410.243378,307.747406 406.930267,307.508118 
	C405.168762,307.380859 404.354004,307.975037 405.388733,310.402771 
M377.348969,138.163559 
	C377.892517,140.184067 378.149261,142.412201 380.715179,143.012955 
	C383.964966,138.709473 383.583710,135.552719 379.505859,132.293182 
	C377.688995,134.615982 377.688995,134.615982 377.348969,138.163559 
M409.508575,345.747925 
	C410.535492,345.458221 411.543915,345.104919 410.747375,343.744934 
	C408.749359,340.333679 403.840881,339.521729 399.836945,342.044586 
	C401.841919,345.717346 405.296204,345.840057 409.508575,345.747925 
M414.303680,224.833893 
	C411.974121,226.283386 411.013702,228.374893 411.376221,231.084457 
	C411.541901,232.322723 412.041626,233.510803 413.454041,233.278091 
	C415.819061,232.888428 417.238464,231.146454 417.490051,228.905594 
	C417.696289,227.068451 418.744995,224.234055 414.303680,224.833893 
M401.445190,217.156189 
	C402.329987,218.616379 402.594971,220.679611 404.874481,220.817520 
	C407.744446,216.071045 407.182220,213.476486 402.573151,210.160095 
	C400.698761,211.986496 400.563232,214.156769 401.445190,217.156189 
M418.511475,275.246521 
	C417.659851,275.565887 416.954193,276.106812 417.655060,277.013275 
	C419.888611,279.902039 425.636688,280.173187 429.001556,277.497192 
	C426.045898,275.083954 422.974792,273.553436 418.511475,275.246521 
M433.713684,302.375275 
	C432.273865,302.561646 430.718384,302.525391 430.029633,304.207092 
	C434.108124,308.308655 436.479126,308.822266 441.989441,306.710571 
	C440.045837,304.119202 437.359375,303.043457 433.713684,302.375275 
M367.202423,205.304520 
	C365.718323,205.595306 364.241974,205.896118 363.952881,207.757874 
	C368.413940,210.892670 371.472687,210.758118 375.278229,207.111176 
	C373.255341,204.744034 370.559723,205.157364 367.202423,205.304520 
M351.071198,323.708649 
	C353.278046,323.509644 355.359741,323.126587 356.089752,319.923309 
	C351.827148,318.976349 347.909271,318.260834 344.450409,321.944092 
	C346.260040,324.395874 348.414368,323.506195 351.071198,323.708649 
M403.364471,233.109253 
	C401.315277,234.298050 400.341278,236.108856 400.350494,238.445648 
	C400.355896,239.817276 400.507263,241.415207 402.257446,241.363632 
	C404.431396,241.299561 406.168243,239.916214 406.434601,237.782867 
	C406.675049,235.857239 408.058685,232.832764 403.364471,233.109253 
M397.903595,314.368652 
	C396.381104,311.486542 394.499115,309.206818 390.566650,309.801544 
	C390.195282,314.286743 392.524780,316.521790 396.150604,317.659027 
	C398.953247,318.538086 398.856323,316.894958 397.903595,314.368652 
M380.183594,329.674805 
	C379.303802,331.159210 377.757019,332.514374 379.190826,334.466125 
	C385.048645,333.902222 387.143127,331.410095 385.726105,326.662994 
	C383.540497,326.471954 382.109802,327.839355 380.183594,329.674805 
M424.236176,248.905655 
	C425.376343,248.441254 426.906311,248.406250 426.834991,246.370789 
	C423.065857,244.123581 419.401245,243.179199 414.936646,247.058472 
	C418.291718,248.595978 420.553009,250.286606 424.236176,248.905655 
M382.306793,274.166687 
	C384.863983,278.286438 388.294922,280.220825 394.021942,278.994659 
	C390.729034,274.480591 387.349335,272.470093 382.306793,274.166687 
M374.634552,328.479645 
	C374.403564,325.554352 372.619934,326.515472 371.140289,327.180206 
	C368.158661,328.519836 365.398621,330.102966 365.856171,334.339081 
	C369.806396,333.924286 372.799683,332.619507 374.634552,328.479645 
M374.731964,249.940277 
	C371.688995,246.849976 368.254608,245.523972 362.927856,247.277771 
	C366.975739,250.966736 370.202850,253.192200 374.731964,249.940277 
M427.147919,262.084351 
	C421.836700,261.030731 419.552246,262.890259 419.832733,268.359192 
	C423.809723,268.327576 426.769073,267.134491 427.147919,262.084351 
M397.570709,332.148438 
	C399.847412,330.806641 401.264496,329.014984 401.009888,326.157867 
	C394.688202,326.649017 392.978943,328.123444 392.779449,333.037811 
	C394.337677,334.169617 395.582397,332.831238 397.570709,332.148438 
M410.224274,282.089600 
	C409.480743,277.778656 405.704559,275.792664 399.419586,276.597168 
	C401.539825,281.066406 405.501282,281.762238 410.224274,282.089600 
M410.579773,262.404999 
	C407.777283,259.527649 404.766876,257.269836 399.926239,258.747070 
	C402.172394,262.370789 405.365875,263.592804 408.749084,264.422180 
	C409.755554,264.668884 411.301178,265.048920 410.579773,262.404999 
M435.885651,226.052658 
	C432.311340,225.946045 429.417603,226.771362 428.759003,231.024048 
	C431.881836,232.547760 434.489868,232.134811 436.642975,229.835770 
	C437.647736,228.762970 439.522583,227.307846 435.885651,226.052658 
M362.794830,328.595093 
	C363.569702,327.199310 363.144714,326.286713 361.577667,326.253571 
	C357.647888,326.170471 354.646088,327.549927 353.285278,331.978088 
	C357.163300,332.827148 359.921051,331.468384 362.794830,328.595093 
M432.728668,237.563416 
	C428.758575,235.026917 425.243378,235.323837 421.412048,239.607574 
	C425.989624,240.987350 429.590698,241.948517 432.728668,237.563416 
M418.245178,254.704453 
	C415.167419,251.956924 411.801941,251.218674 407.796295,252.975098 
	C411.899200,257.475739 415.778015,258.185699 418.245178,254.704453 
M374.939911,243.250900 
	C377.713379,245.246292 380.559326,246.715729 384.229645,244.759232 
	C379.603943,240.768127 377.307831,240.363800 374.939911,243.250900 
M383.863312,238.621948 
	C385.282349,238.553925 386.902954,238.995300 387.743896,236.968933 
	C386.233429,235.671539 384.619019,235.155533 382.808685,236.217072 
	C380.982300,237.288040 382.021301,237.961578 383.863312,238.621948 
z"/>
<path fill="#000000" opacity="1.000000" stroke="none" 
	d="
M275.683746,200.700439 
	C276.037659,202.971283 275.197021,204.828522 273.792694,205.854950 
	C262.994934,213.747269 261.733795,225.913803 259.285431,237.569351 
	C256.624603,250.236588 255.558334,263.133575 253.979721,276.032318 
	C249.463440,273.864441 245.060913,265.831696 246.037094,261.345093 
	C249.360077,246.072403 254.029800,231.256729 259.500061,216.567795 
	C264.802612,202.329193 269.363556,187.787811 274.788330,173.566208 
	C275.566803,171.525391 274.934052,169.831512 273.434906,168.130661 
	C270.162476,164.417953 266.541199,160.927673 264.834106,155.893158 
	C269.165924,159.127060 272.158478,163.862061 276.692383,167.155396 
	C277.571899,164.939865 278.353882,162.969986 279.228882,160.765823 
	C280.403137,164.341110 280.463531,164.358353 277.272339,175.535248 
	C275.812531,180.647980 274.110870,185.693985 272.428772,190.740204 
	C270.807312,195.604538 269.069824,200.430206 267.240753,205.682297 
	C271.164276,205.214722 272.011261,200.713409 275.683746,200.700439 
z"/>
<path fill="#000000" opacity="1.000000" stroke="none" 
	d="
M220.205093,239.683716 
	C218.543579,235.178436 217.035538,231.030045 215.265060,226.159714 
	C220.185349,227.328369 223.188049,228.913010 224.793228,233.314575 
	C230.096497,247.856567 235.780701,262.259705 242.300415,276.315186 
	C242.910706,277.630859 243.884232,278.899170 243.105286,281.384491 
	C221.119308,276.420288 201.360794,266.978699 183.669769,253.045044 
	C199.420624,261.487885 215.446472,269.172333 234.124954,273.534424 
	C229.256775,261.690094 224.807663,250.865341 220.205093,239.683716 
z"/>
<path fill="#000000" opacity="1.000000" stroke="none" 
	d="
M204.998108,295.094055 
	C188.217896,285.260071 171.940140,275.334595 157.266296,262.952209 
	C184.282410,280.599030 212.148499,296.693848 242.004196,311.506653 
	C240.373383,302.248566 238.921417,294.005798 237.414429,285.450714 
	C242.950577,285.187256 245.930786,286.677399 246.675766,292.298584 
	C247.698685,300.016937 249.538483,307.626862 251.021072,315.284607 
	C251.243225,316.432129 251.443649,317.589081 250.162521,319.342834 
	C235.006836,311.906586 220.181427,303.552826 204.998108,295.094055 
z"/>
<path fill="#000000" opacity="1.000000" stroke="none" 
	d="
M312.876953,266.835358 
	C317.207520,260.070374 320.361664,253.117722 323.276581,246.038681 
	C323.851898,244.641556 324.126099,242.408859 326.580750,243.433929 
	C328.824524,244.370987 327.911102,246.148453 327.386200,247.691254 
	C324.818085,255.239273 321.237701,262.348755 317.451263,269.491302 
	C320.169373,270.451691 321.998962,267.535034 324.648956,268.799988 
	C323.321320,272.896820 321.048645,275.952087 317.209137,278.132751 
	C315.138245,279.308929 310.908478,279.325195 312.661957,283.981598 
	C312.954132,284.757446 310.790649,286.332764 309.627625,286.007385 
	C303.846466,284.390106 300.958008,288.984650 297.061829,291.453766 
	C295.129608,292.678284 293.852112,294.860504 291.436188,295.372955 
	C286.858398,287.568207 288.988037,283.413452 298.996307,281.906433 
	C303.524384,281.224579 308.129120,279.789032 308.764130,275.713806 
	C309.325287,272.112793 311.109833,269.851044 312.876953,266.835358 
z"/>
<path fill="#000000" opacity="1.000000" stroke="none" 
	d="
M205.223877,177.067856 
	C206.949539,179.670288 204.766357,185.157455 211.841583,183.130661 
	C207.543427,189.325653 210.402878,194.327499 212.158051,199.387070 
	C214.800140,207.003372 217.566360,214.576614 220.775452,223.554779 
	C193.604935,212.384644 168.930191,199.722610 147.722366,180.982193 
	C167.581940,195.665253 189.682663,206.090240 213.026611,216.107666 
	C210.908188,200.926239 202.182877,188.406494 201.553329,173.724442 
	C203.864578,173.590820 204.461899,175.200317 205.223877,177.067856 
z"/>
<path fill="#000000" opacity="1.000000" stroke="none" 
	d="
M190.831314,325.929565 
	C182.252090,330.347656 174.002823,334.594879 165.733536,338.802704 
	C165.359650,338.992950 164.804565,338.827087 162.671982,338.827087 
	C169.427277,334.276978 175.014008,330.495758 180.628815,326.756653 
	C181.281891,326.321716 182.672958,326.214050 182.740265,325.796417 
	C183.950394,318.288544 188.983521,320.176819 193.602036,321.445587 
	C196.810776,313.700623 196.810776,313.700623 203.616730,317.362762 
	C203.382278,307.782166 210.963135,308.956299 216.697861,307.824219 
	C222.191956,306.739716 225.976776,309.956726 230.282608,314.462646 
	C216.181229,316.733124 202.957687,318.953613 190.831314,325.929565 
z"/>
<path fill="#000000" opacity="1.000000" stroke="none" 
	d="
M280.246155,307.232361 
	C276.479797,311.188232 272.952393,314.880463 269.341705,318.659882 
	C264.157501,311.082581 264.598907,306.368500 270.613220,300.970886 
	C272.842590,298.970154 275.191040,297.100403 277.390411,295.068298 
	C281.564087,291.212036 282.043671,287.727325 279.079315,282.707458 
	C277.722473,280.409821 276.062531,278.244537 277.679077,275.239075 
	C280.326538,274.915314 280.844299,276.524597 281.368713,278.686371 
	C282.403229,282.951050 282.089050,287.395325 286.148010,291.054016 
	C288.408752,293.091858 288.993683,298.108032 285.570190,301.471130 
	C283.791504,303.218506 282.174927,305.130890 280.246155,307.232361 
z"/>
<path fill="#000000" opacity="1.000000" stroke="none" 
	d="
M107.757408,158.961548 
	C108.973946,156.947418 110.036171,155.261169 111.266426,153.308197 
	C109.625099,151.031586 106.914558,149.427002 106.158638,146.343765 
	C105.078682,141.938751 106.554916,140.205841 110.895096,141.184494 
	C113.033195,141.666565 115.121254,142.387283 116.578773,144.104828 
	C117.723366,145.453613 118.942741,146.558243 116.692726,148.583725 
	C114.379601,150.666031 113.461571,153.689865 115.741516,156.884949 
	C118.250656,160.401215 118.728401,164.080353 116.186409,168.027847 
	C114.651047,170.412140 114.346840,173.300308 114.208351,176.186417 
	C114.102226,178.397995 113.160706,181.029694 110.614738,180.673645 
	C107.860260,180.288452 107.919968,177.655289 108.801331,175.442459 
	C110.230148,171.855118 109.924820,168.513260 107.340981,165.648911 
	C105.230148,163.308929 106.570557,161.364792 107.757408,158.961548 
z"/>
<path fill="#000000" opacity="1.000000" stroke="none" 
	d="
M141.024902,287.331757 
	C138.206940,287.459290 135.874207,289.147858 133.098633,287.635254 
	C136.260880,284.762848 140.853546,285.926361 144.733505,282.929474 
	C132.451950,278.264954 120.047401,275.493866 109.128456,269.234283 
	C109.274124,268.849426 109.419785,268.464569 109.565453,268.079712 
	C116.042564,270.419006 122.507103,272.793793 128.999146,275.090881 
	C148.479187,281.983551 168.491180,286.727875 188.887894,289.945740 
	C193.664719,290.699402 198.098465,292.291687 201.497452,296.844910 
	C197.075485,297.355011 193.528427,295.704529 189.937927,294.851898 
	C179.759064,292.434814 169.579086,289.935303 159.581390,286.874237 
	C153.317230,284.956299 147.418213,284.118774 141.024902,287.331757 
z"/>
<path fill="#000000" opacity="1.000000" stroke="none" 
	d="
M258.336304,106.083046 
	C258.522705,109.327179 257.375000,111.661453 254.594040,112.091133 
	C251.797180,112.523254 251.187469,109.572815 250.764374,107.738586 
	C249.715851,103.193123 247.655991,98.715149 252.107620,94.153015 
	C253.956284,92.258438 252.751038,87.888855 255.637283,85.386520 
	C258.166412,83.193802 259.777740,82.960205 261.229584,86.258064 
	C262.866943,89.977371 264.284576,93.486038 261.092804,97.317337 
	C259.196869,99.593178 258.464935,102.624512 258.336304,106.083046 
z"/>
<path fill="#000000" opacity="1.000000" stroke="none" 
	d="
M132.954437,131.065964 
	C133.573212,132.303925 133.895477,133.299850 133.410141,134.252670 
	C130.608322,139.753174 129.560242,145.470245 131.017365,151.563095 
	C131.095856,151.891251 130.574890,152.362778 130.346100,152.745621 
	C124.308952,150.866623 119.900185,143.200836 121.018402,136.573380 
	C121.265831,135.106918 121.586006,133.617416 122.137993,132.245270 
	C123.170593,129.678391 123.463699,125.868851 126.349777,125.348740 
	C129.614136,124.760460 131.011642,128.423859 132.954437,131.065964 
z"/>
<path fill="#000000" opacity="1.000000" stroke="none" 
	d="
M285.739716,223.218353 
	C287.769440,218.724487 290.085999,215.604614 295.437531,215.574005 
	C300.068176,215.547516 301.444153,217.992493 300.102112,221.340988 
	C298.179504,226.138031 295.789337,231.069550 290.708649,233.536255 
	C286.386292,235.634781 284.986938,234.705887 284.721680,229.958328 
	C284.600616,227.791565 284.688934,225.634521 285.739716,223.218353 
z"/>
<path fill="#000000" opacity="1.000000" stroke="none" 
	d="
M200.298370,120.366173 
	C204.698792,119.380241 204.186905,115.524361 205.371964,112.825508 
	C206.061310,111.255608 205.445770,109.019920 208.240463,108.293777 
	C210.349197,109.156754 210.344208,114.874718 214.681366,111.468628 
	C215.549988,117.622780 206.617920,130.874359 200.531403,132.505463 
	C198.574585,128.594437 197.560120,124.682526 200.298370,120.366173 
z"/>
<path fill="#000000" opacity="1.000000" stroke="none" 
	d="
M193.776245,98.706192 
	C191.550156,104.075958 192.859894,109.064270 194.450745,113.763451 
	C192.095184,114.672302 191.167068,113.531548 190.198196,112.719139 
	C184.747681,108.148712 182.358673,95.672485 185.435806,89.163429 
	C186.955383,85.949074 188.544327,85.819946 191.054962,88.083229 
	C194.234726,90.949692 196.671844,93.872612 193.776245,98.706192 
z"/>
<path fill="#000000" opacity="1.000000" stroke="none" 
	d="
M307.234924,121.581314 
	C306.163605,119.779228 305.736786,118.331017 306.353790,116.547729 
	C306.765411,115.358063 306.967621,113.825043 306.581146,112.675003 
	C304.416565,106.234062 305.601471,102.439865 311.554169,97.733749 
	C316.577209,101.727074 317.622406,105.533501 315.050995,110.796310 
	C313.787384,113.382439 313.279663,116.060280 313.268646,118.944702 
	C313.248962,124.092842 312.031616,124.656654 307.234924,121.581314 
z"/>
<path fill="#000000" opacity="1.000000" stroke="none" 
	d="
M154.685150,114.648842 
	C154.467957,109.503487 154.763245,104.934586 158.035904,101.164711 
	C164.988602,103.501801 166.840042,106.501457 164.659836,112.699852 
	C162.971939,117.498619 163.760880,122.076180 164.882446,126.979836 
	C159.460190,124.608841 155.682175,121.069603 154.685150,114.648842 
z"/>
<path fill="#000000" opacity="1.000000" stroke="none" 
	d="
M57.939682,260.026672 
	C57.367905,258.945312 57.067772,258.030090 57.895550,257.479279 
	C64.998787,252.752731 82.769051,253.556503 85.823685,261.471771 
	C84.745636,263.081421 83.123703,262.266235 81.778061,262.193695 
	C77.762428,261.977264 73.589813,261.787964 70.037827,263.584930 
	C64.769936,266.250061 61.290108,264.358521 57.939682,260.026672 
z"/>
<path fill="#000000" opacity="1.000000" stroke="none" 
	d="
M105.512100,326.528931 
	C99.523537,328.796570 95.389587,327.739838 91.160202,323.099823 
	C96.639557,315.733612 109.902336,315.478577 115.660988,322.755859 
	C113.332695,326.447449 108.885590,324.549591 105.512100,326.528931 
z"/>
<path fill="#000000" opacity="1.000000" stroke="none" 
	d="
M88.221130,250.728699 
	C83.722939,246.175583 79.347008,241.973129 83.545479,235.090637 
	C84.276527,233.892227 83.649071,231.865097 83.649071,229.614868 
	C88.443733,229.836700 91.700256,232.431366 94.735031,235.686646 
	C90.632217,239.815018 90.278427,242.556091 92.426224,251.963303 
	C90.743843,253.065918 89.747688,251.487915 88.221130,250.728699 
z"/>
<path fill="#000000" opacity="1.000000" stroke="none" 
	d="
M183.226074,133.038223 
	C178.144821,130.209930 175.112579,126.633278 175.592606,120.568344 
	C175.775772,118.254066 174.302536,115.844078 173.822388,113.430321 
	C173.461517,111.616150 173.718887,109.792274 175.481354,108.067291 
	C178.542374,108.262398 181.003815,110.080986 183.325958,112.178818 
	C184.239899,113.004463 184.831116,113.954063 184.173645,115.233604 
	C181.286774,120.851799 181.841705,126.381874 184.520432,131.898865 
	C184.861008,132.600281 184.334915,133.106216 183.226074,133.038223 
z"/>
<path fill="#000000" opacity="1.000000" stroke="none" 
	d="
M67.171608,241.328598 
	C61.210361,241.095398 64.415817,245.508621 63.530495,247.708466 
	C58.432201,246.619339 54.026333,241.774506 53.813908,237.168365 
	C53.747437,235.726974 54.077332,234.650528 55.595394,234.011230 
	C60.847569,231.799438 71.786240,235.852722 74.727585,241.425430 
	C72.277985,242.607071 69.890717,240.723724 67.171608,241.328598 
z"/>
<path fill="#000000" opacity="1.000000" stroke="none" 
	d="
M284.256226,106.308701 
	C285.000824,109.765305 283.810547,110.170441 281.609924,108.315254 
	C277.850250,105.145683 275.003540,101.340416 274.129486,96.348061 
	C279.021667,94.044106 279.851288,91.432983 277.123627,86.460144 
	C275.967926,84.353142 274.467804,82.432449 277.220581,80.482002 
	C283.600769,83.610069 285.139923,86.723587 283.139374,92.890968 
	C281.666565,97.431358 282.256348,101.732994 284.256226,106.308701 
z"/>
<path fill="#000000" opacity="1.000000" stroke="none" 
	d="
M59.524563,284.357361 
	C60.928989,282.415100 62.309113,281.868958 64.402924,282.764282 
	C69.772011,285.060059 74.891762,283.963257 79.366867,280.583252 
	C83.176506,277.705902 85.599197,279.218994 87.972878,282.114807 
	C87.817932,282.704712 87.798767,283.253510 87.645180,283.294098 
	C80.635025,285.148376 74.292778,289.601898 66.781685,289.267761 
	C63.882896,289.138824 60.463543,288.413757 59.524563,284.357361 
z"/>
<path fill="#000000" opacity="1.000000" stroke="none" 
	d="
M79.831024,174.429749 
	C82.449883,169.716339 85.409050,173.015045 88.036842,173.754364 
	C90.079636,174.329102 91.728081,175.915237 92.695068,178.500793 
	C87.553825,179.990738 89.436066,184.533920 88.858284,188.044525 
	C82.146400,188.142502 79.476326,184.186707 79.831024,174.429749 
z"/>
<path fill="#000000" opacity="1.000000" stroke="none" 
	d="
M262.879150,117.901611 
	C265.091064,116.907951 265.949341,114.492928 268.263824,114.105835 
	C270.833527,120.829704 267.623444,128.702164 261.249542,131.492752 
	C260.156647,131.971237 259.088287,132.499115 258.063293,131.458817 
	C256.265015,129.633636 258.265930,118.936157 260.655212,117.874138 
	C261.181274,117.640312 261.946472,117.944397 262.879150,117.901611 
z"/>
<path fill="#000000" opacity="1.000000" stroke="none" 
	d="
M102.204849,164.005402 
	C101.797264,165.857544 101.515076,167.336395 101.019432,168.739883 
	C100.486565,170.248749 100.580650,172.420166 98.679138,172.845047 
	C96.455986,173.341812 95.050476,171.524506 93.785065,170.016617 
	C91.076981,166.789627 91.033012,160.348633 93.427238,156.879211 
	C94.517616,155.299164 95.692688,155.074051 97.204903,156.032455 
	C99.998085,157.802658 101.983452,160.130005 102.204849,164.005402 
z"/>
<path fill="#000000" opacity="1.000000" stroke="none" 
	d="
M303.839355,181.433655 
	C311.747162,176.586121 318.989014,177.070709 325.052979,182.551727 
	C319.699768,188.396332 307.309723,187.915985 303.839355,181.433655 
z"/>
<path fill="#000000" opacity="1.000000" stroke="none" 
	d="
M71.199753,191.859787 
	C80.412445,189.247925 86.739853,191.333939 89.222466,197.822784 
	C85.274757,198.618958 81.318092,198.756424 77.541214,200.738159 
	C74.382210,202.395691 69.792328,196.110458 71.199753,191.859787 
z"/>
<path fill="#000000" opacity="1.000000" stroke="none" 
	d="
M221.629120,96.330032 
	C216.952225,93.382790 217.934357,90.291122 220.790634,87.150139 
	C222.902512,84.827751 224.983734,82.379257 228.473511,82.185295 
	C230.806381,87.143593 229.980606,93.307159 226.711685,97.124886 
	C224.711899,99.460419 223.210663,99.200462 221.629120,96.330032 
z"/>
<path fill="#000000" opacity="1.000000" stroke="none" 
	d="
M240.563538,209.640442 
	C244.959656,205.593109 247.983292,204.543671 252.824905,205.145523 
	C253.624130,210.772034 250.662109,214.948166 244.782562,216.477448 
	C243.173233,215.438309 245.000687,214.039917 244.272812,212.586929 
	C243.483246,214.161011 242.888962,215.617569 242.060501,216.925842 
	C241.107132,218.431366 239.667587,218.435532 237.878250,217.790451 
	C237.553329,214.768356 239.433685,212.495010 240.563538,209.640442 
z"/>
<path fill="#000000" opacity="1.000000" stroke="none" 
	d="
M58.431511,272.135132 
	C63.925480,269.291443 69.091652,267.520294 74.299141,271.995209 
	C69.515099,278.570709 60.590893,280.425201 54.815258,276.173126 
	C54.701424,273.870361 56.717937,273.358307 58.431511,272.135132 
z"/>
<path fill="#000000" opacity="1.000000" stroke="none" 
	d="
M214.729584,259.377686 
	C213.848495,261.042877 213.199387,262.414948 211.571472,262.852051 
	C207.049133,259.872040 205.198334,251.422760 208.072952,247.240982 
	C209.689575,244.889221 211.209778,244.557388 213.110016,246.939606 
	C216.069336,250.649567 216.761536,254.636795 214.729584,259.377686 
z"/>
<path fill="#000000" opacity="1.000000" stroke="none" 
	d="
M222.046112,128.014648 
	C222.012817,123.432549 222.854401,118.968071 222.900482,114.378967 
	C222.937531,110.688797 226.422653,109.622086 229.309967,108.445511 
	C233.806717,114.606644 230.489304,123.700874 222.046112,128.014648 
z"/>
<path fill="#000000" opacity="1.000000" stroke="none" 
	d="
M114.737221,346.665466 
	C112.784378,346.012085 111.228630,345.441376 110.376389,343.462341 
	C112.372177,340.658966 114.317169,338.704803 118.373528,340.957611 
	C121.608009,342.753937 125.218979,341.761047 128.391891,340.046234 
	C130.704773,338.796143 132.426788,339.128326 134.347885,341.816925 
	C128.437592,346.093689 122.391060,348.597839 114.737221,346.665466 
z"/>
<path fill="#000000" opacity="1.000000" stroke="none" 
	d="
M168.655991,214.884735 
	C170.562866,213.775467 172.307297,213.020813 173.606613,211.794540 
	C176.689270,208.885193 179.430878,209.584442 182.306427,211.923325 
	C177.964645,220.122528 165.629730,223.108643 160.140091,217.357544 
	C162.194672,214.244034 165.839523,216.621307 168.655991,214.884735 
z"/>
<path fill="#000000" opacity="1.000000" stroke="none" 
	d="
M294.646973,167.840942 
	C290.358917,169.841278 286.349884,170.925034 282.093628,168.911545 
	C284.559082,160.126556 290.228699,158.075043 298.641754,162.618637 
	C298.542480,165.113235 296.510925,166.205414 294.646973,167.840942 
z"/>
<path fill="#000000" opacity="1.000000" stroke="none" 
	d="
M304.882690,198.279007 
	C302.374054,198.116043 300.066895,198.881104 298.436157,196.849091 
	C303.121399,188.008041 308.679169,186.529999 316.506592,192.335861 
	C313.961243,196.619278 309.746613,197.636154 304.882690,198.279007 
z"/>
<path fill="#000000" opacity="1.000000" stroke="none" 
	d="
M326.463501,166.005310 
	C328.994751,166.918045 331.334259,167.358231 332.802612,169.354828 
	C329.476196,175.095810 321.443665,176.156113 314.843170,171.775528 
	C316.213287,167.119858 319.031616,165.646194 326.463501,166.005310 
z"/>
<path fill="#000000" opacity="1.000000" stroke="none" 
	d="
M134.248016,294.305237 
	C134.031784,302.595398 130.097427,307.178497 122.290268,308.287659 
	C122.813820,305.187195 125.978745,303.500305 126.129112,300.371063 
	C125.568443,298.756195 123.509735,300.588898 122.681343,298.738342 
	C124.398666,294.646881 128.316162,293.350220 132.265289,292.189270 
	C133.476242,291.833252 134.015961,292.796082 134.248016,294.305237 
z"/>
<path fill="#000000" opacity="1.000000" stroke="none" 
	d="
M257.573486,186.953552 
	C261.281372,186.306290 261.168121,187.890854 259.995392,190.211853 
	C257.611053,194.930725 249.211014,199.277481 243.940521,196.507492 
	C244.439865,191.269760 248.164536,187.557953 252.911026,187.741547 
	C254.437149,187.800583 255.859955,187.686447 257.573486,186.953552 
z"/>
<path fill="#000000" opacity="1.000000" stroke="none" 
	d="
M188.444962,343.048279 
	C187.540680,338.277252 191.784119,333.324463 195.993637,333.653290 
	C197.159348,333.744354 197.704559,334.482056 198.217163,335.375580 
	C199.607224,337.798615 197.194489,347.117493 194.610718,347.951996 
	C190.822723,349.175385 190.233917,345.444733 188.444962,343.048279 
z"/>
<path fill="#000000" opacity="1.000000" stroke="none" 
	d="
M229.264160,202.983185 
	C229.252975,205.003769 229.252975,206.634033 229.252975,208.298279 
	C221.289429,206.657776 217.620316,199.007767 221.424469,192.301682 
	C228.344742,193.696121 230.239395,196.179703 229.264160,202.983185 
z"/>
<path fill="#000000" opacity="1.000000" stroke="none" 
	d="
M193.210144,188.030441 
	C196.837784,193.098328 193.335907,197.530045 192.707550,202.072525 
	C192.564377,203.107605 191.251816,203.547089 190.270462,202.929886 
	C188.433731,201.774734 186.179947,200.284698 186.246185,198.167267 
	C186.389267,193.593597 187.300293,189.043945 187.912979,184.363632 
	C190.467117,184.186737 191.532272,186.271576 193.210144,188.030441 
z"/>
<path fill="#000000" opacity="1.000000" stroke="none" 
	d="
M234.253632,181.406204 
	C234.307541,185.141357 234.257492,188.437134 231.637772,190.954132 
	C224.136078,187.693283 222.754059,181.631821 227.887985,174.215591 
	C231.459213,175.071091 233.151550,177.712936 234.253632,181.406204 
z"/>
<path fill="#000000" opacity="1.000000" stroke="none" 
	d="
M267.713745,239.321106 
	C270.654541,237.124756 275.090454,239.511902 275.955658,243.830429 
	C276.619598,247.144318 276.685303,250.659653 275.016937,253.866241 
	C268.305237,252.058731 265.728271,246.986984 267.713745,239.321106 
z"/>
<path fill="#000000" opacity="1.000000" stroke="none" 
	d="
M233.679977,165.576111 
	C230.726135,168.597260 227.757370,170.741241 223.149384,170.207916 
	C223.668243,166.594452 223.806152,163.081009 226.130219,160.374237 
	C228.018448,158.175049 230.498291,155.472198 233.614426,157.286911 
	C237.158524,159.350861 235.893112,162.518295 233.679977,165.576111 
z"/>
<path fill="#000000" opacity="1.000000" stroke="none" 
	d="
M68.083679,218.438980 
	C71.354233,219.740707 74.509575,220.596863 75.378067,224.496719 
	C73.211868,226.116333 67.857750,224.118896 69.729958,229.673019 
	C64.113640,229.229111 59.347954,224.250107 60.615303,219.927078 
	C61.792595,215.911270 65.155098,218.153320 68.083679,218.438980 
z"/>
<path fill="#000000" opacity="1.000000" stroke="none" 
	d="
M262.537231,273.566010 
	C262.680206,270.709778 263.430389,269.200531 266.213470,270.702789 
	C269.723663,272.597565 272.669800,274.665344 271.439850,279.559662 
	C270.899902,281.708344 271.348999,284.105560 271.348999,286.383942 
	C265.074036,285.165741 262.110992,281.026276 262.537231,273.566010 
z"/>
<path fill="#000000" opacity="1.000000" stroke="none" 
	d="
M184.199814,228.319611 
	C182.044037,228.139511 180.139740,228.392090 178.767731,226.212250 
	C183.131805,224.440582 186.766113,221.771042 190.295975,218.805206 
	C193.226913,216.342606 196.117859,218.573730 199.435974,220.614853 
	C195.611298,225.886444 190.521759,227.831665 184.199814,228.319611 
z"/>
<path fill="#000000" opacity="1.000000" stroke="none" 
	d="
M214.217560,155.502106 
	C214.060989,157.826462 213.952087,159.742996 213.840179,161.712402 
	C206.131668,159.942581 202.703949,152.564926 206.286072,146.245422 
	C212.976135,147.842545 214.892319,149.967575 214.217560,155.502106 
z"/>
<path fill="#000000" opacity="1.000000" stroke="none" 
	d="
M175.371918,351.196136 
	C172.012512,349.935547 171.802353,347.804230 172.762436,345.045197 
	C174.068146,341.292969 176.010727,338.233276 180.296738,336.995636 
	C182.118713,342.263397 184.073029,347.288727 179.100861,351.798798 
	C177.807068,352.972382 176.478607,354.400055 175.371918,351.196136 
z"/>
<path fill="#000000" opacity="1.000000" stroke="none" 
	d="
M145.071075,289.964752 
	C147.954697,288.374756 149.192780,288.876160 149.612976,292.042725 
	C150.340027,297.521606 147.993164,301.992950 142.211288,304.373230 
	C143.367081,300.942017 138.270370,300.399353 139.351440,297.116333 
	C140.306046,294.217499 142.301895,291.967529 145.071075,289.964752 
z"/>
<path fill="#000000" opacity="1.000000" stroke="none" 
	d="
M265.825439,144.788193 
	C265.293182,142.381851 263.876404,140.087189 266.075073,138.463806 
	C267.693359,137.268936 269.833679,137.130920 271.660431,138.443756 
	C273.703461,139.912048 275.745789,141.416794 274.732544,144.502884 
	C273.894531,147.055298 274.585938,149.697464 274.681549,152.640610 
	C270.105774,151.685699 267.610291,148.912231 265.825439,144.788193 
z"/>
<path fill="#000000" opacity="1.000000" stroke="none" 
	d="
M288.456970,156.051834 
	C284.640930,152.735016 287.722778,150.239548 289.478485,148.131790 
	C291.073853,146.216522 293.099091,143.580521 296.486359,145.877563 
	C297.649170,146.666092 299.184143,146.905792 300.978485,147.550491 
	C299.513062,154.214737 294.087952,155.043259 288.456970,156.051834 
z"/>
<path fill="#000000" opacity="1.000000" stroke="none" 
	d="
M142.395096,223.283020 
	C140.761307,220.222809 140.573700,217.385986 141.312057,214.021286 
	C146.908661,214.737991 151.881027,215.699020 154.732193,221.011002 
	C152.841080,222.928741 150.926880,220.627258 148.375946,222.444214 
	C147.532898,223.079376 149.471695,224.862793 148.607285,226.701447 
	C145.907837,227.260193 144.419739,225.104630 142.395096,223.283020 
z"/>
<path fill="#000000" opacity="1.000000" stroke="none" 
	d="
M104.513443,210.898193 
	C108.065292,212.421799 112.142761,212.838913 112.445496,217.579544 
	C100.109543,220.723984 100.109543,220.723984 96.708000,212.452637 
	C98.815514,210.319321 101.501862,210.734818 104.513443,210.898193 
z"/>
<path fill="#000000" opacity="1.000000" stroke="none" 
	d="
M226.915634,144.117340 
	C228.263916,142.044113 229.231232,140.069275 231.507370,139.494598 
	C233.084366,140.418991 231.587601,142.555786 233.325424,143.415237 
	C235.456268,144.118256 237.022110,141.536621 239.253342,142.057083 
	C238.106308,147.960297 233.983246,151.636414 227.341660,152.560257 
	C226.640182,149.900604 225.898529,147.253555 226.915634,144.117340 
z"/>
<path fill="#000000" opacity="1.000000" stroke="none" 
	d="
M167.517090,236.260071 
	C162.791412,230.082565 162.772995,226.807800 167.167679,222.266220 
	C173.278152,226.871445 174.645218,230.628174 172.085846,235.358475 
	C170.987732,237.388031 169.728973,238.026520 167.517090,236.260071 
z"/>
<path fill="#000000" opacity="1.000000" stroke="none" 
	d="
M322.124878,160.505096 
	C323.719482,153.435165 331.983185,152.220749 337.887939,157.876709 
	C334.583954,162.970230 329.145081,163.987549 322.124878,160.505096 
z"/>
<path fill="#000000" opacity="1.000000" stroke="none" 
	d="
M290.120117,141.120392 
	C285.926483,138.427658 288.294617,135.911667 290.005554,133.587143 
	C291.520172,131.529343 293.637268,130.194260 296.702057,129.948639 
	C297.629364,131.859726 297.701447,134.943695 301.959412,133.791260 
	C299.246735,139.647278 295.127411,140.798935 290.120117,141.120392 
z"/>
<path fill="#000000" opacity="1.000000" stroke="none" 
	d="
M317.083130,305.818878 
	C317.698425,311.081055 317.446991,315.734497 313.620667,319.446930 
	C308.270782,315.335358 308.485016,307.697052 314.040924,301.928986 
	C316.065613,302.190308 316.268433,304.034302 317.083130,305.818878 
z"/>
<path fill="#000000" opacity="1.000000" stroke="none" 
	d="
M122.918976,323.144104 
	C117.839317,319.524658 116.780937,317.394714 117.242920,312.283569 
	C123.075264,311.174713 126.565659,312.690216 130.011032,318.181427 
	C126.150612,317.927948 127.777924,324.149078 122.918976,323.144104 
z"/>
<path fill="#000000" opacity="1.000000" stroke="none" 
	d="
M296.514465,99.049202 
	C292.851715,97.797295 291.789520,94.717140 291.918121,91.710747 
	C292.047058,88.696617 294.803009,87.046410 297.456940,85.946358 
	C299.732635,85.003113 301.308136,85.737701 301.662933,88.372124 
	C302.274506,92.912743 300.632996,96.415611 296.514465,99.049202 
z"/>
<path fill="#000000" opacity="1.000000" stroke="none" 
	d="
M104.447609,241.784210 
	C102.681824,236.322311 107.480049,236.780930 109.415779,237.033234 
	C113.458748,237.560120 117.323494,239.454437 121.362007,240.821075 
	C117.701347,245.847046 110.664116,246.219788 104.447609,241.784210 
z"/>
<path fill="#000000" opacity="1.000000" stroke="none" 
	d="
M311.886536,138.671570 
	C315.822296,142.878372 316.484558,147.923492 314.000031,152.462418 
	C313.513580,153.351151 312.945251,154.216003 311.788696,154.214996 
	C309.345581,154.212860 305.074280,146.671341 306.686035,144.770142 
	C308.389404,142.760910 309.190704,140.042587 311.886536,138.671570 
z"/>
<path fill="#000000" opacity="1.000000" stroke="none" 
	d="
M154.417694,147.148346 
	C161.195633,144.568375 169.772400,147.002197 171.507339,151.621445 
	C159.987534,154.854080 156.395554,153.990662 154.417694,147.148346 
z"/>
<path fill="#000000" opacity="1.000000" stroke="none" 
	d="
M159.224243,319.881653 
	C159.184967,320.539856 159.187576,320.871582 159.139877,321.195953 
	C158.782578,323.626678 157.270966,322.940704 155.850128,322.381927 
	C152.182495,320.939575 149.157043,316.155121 149.810638,313.046906 
	C150.263992,310.890991 151.794891,310.510254 153.522095,310.772888 
	C156.929230,311.291077 159.658371,312.961090 161.345810,315.852478 
	C161.741852,317.885101 158.928741,317.763824 159.224243,319.881653 
z"/>
<path fill="#000000" opacity="1.000000" stroke="none" 
	d="
M327.937958,148.971146 
	C329.245148,146.181549 331.271790,144.220474 333.904236,143.218918 
	C337.945557,141.681335 341.307648,142.764145 343.516632,146.704041 
	C340.078186,151.686630 334.771637,152.600204 327.937958,148.971146 
z"/>
<path fill="#000000" opacity="1.000000" stroke="none" 
	d="
M140.842468,264.467438 
	C137.934113,264.056183 135.358871,264.668091 133.208435,265.680695 
	C128.083633,268.093903 125.650589,265.196075 122.627449,261.065826 
	C127.676102,260.744812 131.999680,260.129059 136.232254,258.853210 
	C138.778885,258.085571 140.562775,260.088623 141.988693,261.991364 
	C142.765335,263.027710 143.091965,264.178558 140.842468,264.467438 
z"/>
<path fill="#000000" opacity="1.000000" stroke="none" 
	d="
M264.394165,256.895416 
	C264.873627,255.196793 264.573090,252.908585 266.894501,253.772171 
	C269.371063,254.693451 272.210480,256.239868 271.874451,259.278503 
	C271.531342,262.381042 271.349121,265.451599 271.834717,268.633087 
	C264.903320,267.520935 263.020294,264.511353 264.394165,256.895416 
z"/>
<path fill="#000000" opacity="1.000000" stroke="none" 
	d="
M288.423462,257.223969 
	C290.755463,255.938019 292.661987,254.450485 295.545105,255.077148 
	C296.038483,257.076050 295.097290,259.605316 297.450623,260.952423 
	C293.872345,265.961761 289.123718,265.439789 284.191010,265.218964 
	C283.683319,261.452515 286.011536,259.505371 288.423462,257.223969 
z"/>
<path fill="#000000" opacity="1.000000" stroke="none" 
	d="
M198.518417,242.748383 
	C201.136566,247.822678 199.353363,251.902603 197.043777,256.120911 
	C193.246201,254.858841 191.441971,252.763077 193.145233,249.281693 
	C194.954193,245.584229 191.852325,242.365707 192.308502,238.661880 
	C195.641876,238.250153 196.860641,240.529846 198.518417,242.748383 
z"/>
<path fill="#000000" opacity="1.000000" stroke="none" 
	d="
M159.035431,347.152161 
	C159.738342,346.407135 160.167831,345.883331 160.704483,345.516113 
	C162.860947,344.040588 164.948013,342.143799 167.845352,342.979980 
	C168.943832,343.296997 168.888245,344.520630 168.688736,345.539185 
	C168.072678,348.684540 167.163391,351.853577 164.052582,353.273834 
	C161.909927,354.252045 159.373642,354.368103 156.940918,354.884857 
	C155.812119,351.820129 157.486069,349.676880 159.035431,347.152161 
z"/>
<path fill="#000000" opacity="1.000000" stroke="none" 
	d="
M311.166687,222.689178 
	C309.198700,220.037369 307.378754,217.687943 308.253052,213.830566 
	C313.422302,214.446671 317.790955,215.883316 320.975311,220.937561 
	C318.332550,221.845505 316.578278,223.302719 317.748505,226.296600 
	C314.687866,226.211304 313.240356,224.243088 311.166687,222.689178 
z"/>
<path fill="#000000" opacity="1.000000" stroke="none" 
	d="
M97.682922,198.644470 
	C105.610130,198.255310 107.511421,199.273758 109.249405,204.586151 
	C102.618660,208.407776 98.420311,207.572983 95.670906,202.082230 
	C94.620499,199.984482 95.036469,199.001251 97.682922,198.644470 
z"/>
<path fill="#000000" opacity="1.000000" stroke="none" 
	d="
M138.810028,252.173721 
	C134.005264,246.744095 129.269409,241.701401 126.065086,235.548935 
	C126.403267,235.264343 126.741440,234.979736 127.079613,234.695145 
	C135.505188,243.985245 143.930756,253.275360 152.356323,262.565460 
	C146.968796,260.367767 142.964600,256.458344 138.810028,252.173721 
z"/>
<path fill="#000000" opacity="1.000000" stroke="none" 
	d="
M246.442810,119.167587 
	C246.180878,121.453224 244.999863,120.837753 243.904572,120.378334 
	C239.405106,118.491028 237.064804,114.283607 237.471130,108.344177 
	C241.066818,110.270317 246.258087,108.167084 248.302155,113.733696 
	C247.586258,115.259422 245.673264,116.604744 246.442810,119.167587 
z"/>
<path fill="#000000" opacity="1.000000" stroke="none" 
	d="
M137.704407,131.824066 
	C137.759979,127.419632 138.954773,124.000702 142.531815,121.528732 
	C146.131393,124.743652 146.247894,128.553970 144.902328,132.524063 
	C144.232300,134.500992 143.346649,137.069321 140.781219,136.832977 
	C138.546875,136.627136 138.051468,134.260315 137.704407,131.824066 
z"/>
<path fill="#000000" opacity="1.000000" stroke="none" 
	d="
M329.930847,306.639099 
	C328.698334,309.000061 327.902985,311.271362 325.093872,312.071136 
	C323.087006,310.128906 320.907990,308.162231 322.157074,304.931946 
	C323.464172,301.551636 325.141296,298.328186 329.338623,297.526581 
	C331.220886,300.473206 330.887817,303.357605 329.930847,306.639099 
z"/>
<path fill="#000000" opacity="1.000000" stroke="none" 
	d="
M324.483337,135.364166 
	C323.696503,138.430283 322.172424,140.404022 319.462524,141.643188 
	C316.261139,138.388626 314.656006,134.886383 315.335541,129.968460 
	C318.181915,130.690628 320.554932,130.226547 322.420197,128.121002 
	C324.890503,130.107407 324.810516,132.530685 324.483337,135.364166 
z"/>
<path fill="#000000" opacity="1.000000" stroke="none" 
	d="
M174.981293,255.372360 
	C180.013641,252.579361 181.153625,256.665070 183.426941,259.133209 
	C172.830460,263.238800 167.761276,262.311829 164.179733,255.428497 
	C167.800262,255.518066 171.229111,256.139832 174.981293,255.372360 
z"/>
<path fill="#000000" opacity="1.000000" stroke="none" 
	d="
M285.557190,209.303741 
	C291.966278,199.648193 295.812378,199.019058 300.359924,202.487717 
	C298.698547,207.706863 292.368164,210.792740 285.557190,209.303741 
z"/>
<path fill="#000000" opacity="1.000000" stroke="none" 
	d="
M126.085312,208.154449 
	C124.210815,210.358261 122.501808,213.823471 119.909561,212.417740 
	C116.850693,210.758987 117.595970,206.992905 118.708450,203.923462 
	C119.553337,201.592270 120.580780,199.360229 124.055389,198.011566 
	C122.366531,202.188507 128.981766,203.495605 126.085312,208.154449 
z"/>
<path fill="#000000" opacity="1.000000" stroke="none" 
	d="
M115.390610,228.544586 
	C112.973831,232.272552 108.736832,231.508331 105.381683,232.919708 
	C104.897766,233.123291 103.444481,232.200562 103.809044,231.414551 
	C105.587860,227.579300 101.982269,226.704956 99.795235,224.459137 
	C106.208618,222.120102 110.841614,224.694046 115.390610,228.544586 
z"/>
<path fill="#000000" opacity="1.000000" stroke="none" 
	d="
M138.719009,312.722229 
	C146.077789,315.179138 146.077789,315.179138 143.466095,324.333862 
	C138.696640,323.950165 136.136185,321.039337 134.980316,316.731201 
	C134.279877,314.120453 135.366653,312.532776 138.719009,312.722229 
z"/>
<path fill="#000000" opacity="1.000000" stroke="none" 
	d="
M165.052490,248.309570 
	C155.389175,249.799667 153.285736,248.886856 151.226334,242.469162 
	C151.991714,241.322128 153.201996,241.172989 154.281891,241.606476 
	C157.367599,242.845123 160.375122,243.798599 163.849854,243.276169 
	C165.751984,242.990204 167.244141,244.575104 167.683060,246.522003 
	C168.090363,248.328690 166.505524,248.084595 165.052490,248.309570 
z"/>
<path fill="#000000" opacity="1.000000" stroke="none" 
	d="
M242.303619,233.960541 
	C242.273560,237.226288 240.955124,239.519806 238.961151,241.370453 
	C237.796539,242.451355 236.313156,243.868057 234.603073,242.573517 
	C233.199646,241.511124 232.786774,239.703781 233.494354,238.054779 
	C234.340240,236.083481 235.469391,234.227112 236.556488,232.368134 
	C237.371277,230.974792 237.976425,228.915649 239.949219,229.192566 
	C242.260223,229.516953 242.142578,231.736389 242.303619,233.960541 
z"/>
<path fill="#000000" opacity="1.000000" stroke="none" 
	d="
M113.116852,248.373260 
	C117.165878,250.036438 120.854996,251.198227 125.005554,249.806671 
	C126.587402,249.276321 128.697357,248.760681 129.628036,251.201874 
	C124.447578,255.937073 116.699593,256.569641 112.027908,252.716599 
	C109.687012,250.785904 109.379936,249.291565 113.116852,248.373260 
z"/>
<path fill="#000000" opacity="1.000000" stroke="none" 
	d="
M185.380829,272.194214 
	C182.626694,271.439880 180.244751,270.797394 178.434814,268.263611 
	C182.942383,266.548889 188.738251,269.851074 191.482376,264.060608 
	C194.235077,264.713318 196.418060,265.972595 197.991882,269.090698 
	C194.162079,271.385925 190.037292,272.013641 185.380829,272.194214 
z"/>
<path fill="#000000" opacity="1.000000" stroke="none" 
	d="
M179.784668,100.809280 
	C179.406799,105.118782 177.462448,105.529984 174.461639,103.590813 
	C174.046036,103.322243 173.669815,102.989693 173.289734,102.669701 
	C170.701569,100.490784 170.355865,97.620850 170.812683,94.520416 
	C171.020782,93.108093 171.937820,92.451172 173.277374,92.752281 
	C176.212143,93.411957 178.378098,95.084694 179.383774,98.004875 
	C179.648727,98.774254 179.688126,99.621315 179.784668,100.809280 
z"/>
<path fill="#000000" opacity="1.000000" stroke="none" 
	d="
M274.503723,236.141449 
	C272.695190,233.298355 272.044556,230.608627 273.291351,227.786743 
	C273.783295,226.673309 274.964569,226.793518 275.903687,227.252655 
	C278.888824,228.712082 281.068939,230.852203 281.577759,234.326843 
	C281.847870,236.171570 281.887177,237.956757 280.589081,239.601349 
	C277.940796,239.839096 276.403839,238.026993 274.503723,236.141449 
z"/>
<path fill="#000000" opacity="1.000000" stroke="none" 
	d="
M238.866852,86.997604 
	C238.412659,86.462524 238.181381,86.221199 237.999924,85.946915 
	C236.314163,83.398575 234.574860,80.604248 236.849854,77.790176 
	C238.631622,75.586197 240.479553,77.725250 241.927185,78.848854 
	C244.975677,81.215004 246.449173,84.657066 244.689743,88.049782 
	C242.996567,91.314735 240.901291,88.368927 238.866852,86.997604 
z"/>
<path fill="#000000" opacity="1.000000" stroke="none" 
	d="
M150.436096,124.082207 
	C143.685822,121.890549 142.113907,119.462097 143.109344,113.368904 
	C151.263916,113.216652 153.788925,116.718796 150.436096,124.082207 
z"/>
<path fill="#000000" opacity="1.000000" stroke="none" 
	d="
M297.661316,245.876816 
	C296.328278,252.082657 294.041229,254.174759 289.243256,254.118378 
	C285.838989,254.078384 285.168671,252.515854 286.632904,249.646973 
	C288.533569,245.922958 292.931732,244.240967 297.661316,245.876816 
z"/>
<path fill="#000000" opacity="1.000000" stroke="none" 
	d="
M179.876404,187.291016 
	C179.624908,187.985718 179.535660,188.306259 179.403122,188.607788 
	C178.446121,190.784866 177.756546,194.214111 174.784454,193.182343 
	C170.833817,191.810867 173.270752,188.954834 174.552780,186.758865 
	C176.684616,183.107269 175.176346,179.459366 174.345932,175.717789 
	C179.196136,176.975250 180.673615,180.046204 179.876404,187.291016 
z"/>
<path fill="#000000" opacity="1.000000" stroke="none" 
	d="
M134.252075,174.557465 
	C136.577362,175.189560 138.062912,176.412949 137.907104,178.426666 
	C137.729813,180.717941 135.481598,180.082611 133.993790,180.463318 
	C132.074066,180.954559 130.231598,181.337112 128.197754,180.658127 
	C125.526917,179.766510 124.551277,178.507217 125.392593,175.538910 
	C126.210762,172.652298 127.947624,172.398926 130.225418,172.946716 
	C131.486313,173.249954 132.654755,173.937622 134.252075,174.557465 
z"/>
<path fill="#000000" opacity="1.000000" stroke="none" 
	d="
M118.689255,186.745651 
	C121.807686,184.729187 123.292107,185.333130 123.315994,188.807678 
	C123.347694,193.418839 121.181931,196.525879 117.122505,198.479431 
	C113.680138,193.933533 114.054520,190.960358 118.689255,186.745651 
z"/>
<path fill="#000000" opacity="1.000000" stroke="none" 
	d="
M79.140839,208.534882 
	C79.017990,207.211899 78.666794,205.948639 79.146431,205.338562 
	C80.326607,203.837418 81.950516,204.613907 83.123215,205.463699 
	C85.701027,207.331665 90.085754,206.162476 91.297676,210.090103 
	C91.826675,211.804474 86.678764,214.614243 84.449104,213.887711 
	C81.941696,213.070709 80.274109,211.317322 79.140839,208.534882 
z"/>
<path fill="#000000" opacity="1.000000" stroke="none" 
	d="
M135.896088,191.992569 
	C132.785263,191.520157 129.900192,191.404663 127.722923,188.468246 
	C133.254791,182.136581 139.971954,189.376648 145.542343,186.318924 
	C143.668106,190.587555 139.861191,191.061935 135.896088,191.992569 
z"/>
<path fill="#000000" opacity="1.000000" stroke="none" 
	d="
M263.671844,85.112198 
	C262.935608,81.638290 262.784027,78.073845 266.277100,77.210869 
	C269.088348,76.516319 270.113739,79.906883 270.852509,82.226036 
	C271.783997,85.150017 271.322296,88.493042 268.473541,89.613533 
	C265.888092,90.630455 264.825409,87.516335 263.671844,85.112198 
z"/>
<path fill="#000000" opacity="1.000000" stroke="none" 
	d="
M173.569839,317.872986 
	C173.386032,319.274963 173.679138,320.827423 171.794159,320.409088 
	C168.317001,319.637482 165.790955,317.655548 164.847961,314.097961 
	C164.366867,312.282959 165.078812,310.683258 166.790298,309.985565 
	C169.071213,309.055756 170.971817,310.291382 172.643036,311.717773 
	C174.559540,313.353577 175.830734,315.192169 173.569839,317.872986 
z"/>
<path fill="#000000" opacity="1.000000" stroke="none" 
	d="
M300.858154,122.802963 
	C299.285461,126.475410 293.267181,129.217102 290.043091,128.093781 
	C288.441467,127.535751 288.201233,126.527863 288.525269,125.005356 
	C289.079559,122.400909 290.981110,120.140167 294.496429,118.257607 
	C296.369354,119.015594 294.785980,121.065193 295.891632,122.117241 
	C297.344086,123.408676 299.060913,122.323372 300.858154,122.802963 
z"/>
<path fill="#000000" opacity="1.000000" stroke="none" 
	d="
M152.051514,237.796661 
	C148.957947,237.434372 146.317444,236.882278 145.084320,234.054672 
	C144.646225,233.050095 145.149368,232.033325 146.117325,231.506729 
	C148.808105,230.042770 151.560287,230.017227 154.182678,231.628571 
	C155.810425,232.628754 158.120941,232.763184 158.932205,235.407944 
	C157.455978,237.786072 154.714111,237.234970 152.051514,237.796661 
z"/>
<path fill="#000000" opacity="1.000000" stroke="none" 
	d="
M344.392181,190.758972 
	C341.970917,192.207397 339.688293,192.660141 337.333801,192.225861 
	C335.633087,191.912155 333.322327,191.987595 333.117157,189.590057 
	C332.931580,187.421387 334.884552,186.617767 336.497437,185.722046 
	C340.351898,183.581451 343.495056,185.542755 346.668549,187.392426 
	C347.019104,189.094604 345.743164,189.738022 344.392181,190.758972 
z"/>
<path fill="#000000" opacity="1.000000" stroke="none" 
	d="
M336.352448,194.915466 
	C339.097351,194.580048 341.334137,195.069031 341.679657,197.680527 
	C341.976440,199.923615 339.936066,201.178528 338.114960,201.910919 
	C335.246918,203.064316 332.226654,204.393494 329.166962,201.581696 
	C329.517578,197.465164 332.703674,196.196457 336.352448,194.915466 
z"/>
<path fill="#000000" opacity="1.000000" stroke="none" 
	d="
M279.008423,110.433426 
	C280.723663,113.378433 280.700562,116.023392 279.607574,118.730057 
	C273.094910,117.634628 270.617767,113.282600 272.480927,106.292625 
	C275.621124,105.810745 277.010071,108.290840 279.008423,110.433426 
z"/>
<path fill="#000000" opacity="1.000000" stroke="none" 
	d="
M179.642609,241.346741 
	C181.744324,237.922195 179.306000,234.553024 180.237671,231.189270 
	C184.060440,231.569168 185.224274,234.444916 186.018631,237.171265 
	C186.870361,240.094650 186.427689,243.087204 184.367599,245.613739 
	C183.634186,246.513214 182.743835,246.786377 181.757339,246.227814 
	C180.021362,245.244919 179.073486,243.809830 179.642609,241.346741 
z"/>
<path fill="#000000" opacity="1.000000" stroke="none" 
	d="
M98.648994,272.899658 
	C103.758430,271.081482 108.339989,270.922913 112.997757,274.725891 
	C109.579727,278.468445 105.662270,280.125031 100.636337,280.476440 
	C101.061279,278.206879 103.517830,278.698151 103.732796,276.704376 
	C102.933113,274.769775 100.846092,275.365570 99.177292,275.022034 
	C97.944359,274.768250 97.336060,274.279572 98.648994,272.899658 
z"/>
<path fill="#000000" opacity="1.000000" stroke="none" 
	d="
M161.748718,135.147552 
	C163.016861,136.296188 164.037674,137.168701 163.828262,139.271393 
	C160.372772,140.295807 156.803772,141.539536 152.606689,140.841919 
	C152.294693,137.952881 152.059708,134.905899 154.167831,133.343475 
	C156.548523,131.579056 159.135040,133.658981 161.748718,135.147552 
z"/>
<path fill="#000000" opacity="1.000000" stroke="none" 
	d="
M252.005280,179.295532 
	C249.547104,181.018753 247.439728,182.753235 244.517685,181.841476 
	C243.273773,176.540924 244.630783,173.936752 249.986389,171.253906 
	C251.566849,171.473175 250.944199,173.223907 251.784348,173.916199 
	C252.517365,174.520233 253.384705,174.961258 254.105118,175.418686 
	C254.142319,177.117798 253.105179,178.029770 252.005280,179.295532 
z"/>
<path fill="#000000" opacity="1.000000" stroke="none" 
	d="
M86.548401,223.712814 
	C85.102165,222.116135 83.108864,220.854034 84.559975,218.854248 
	C85.758621,217.202316 88.165009,217.129623 89.607384,217.980484 
	C92.236183,219.531204 96.907310,218.721664 97.096825,223.213058 
	C97.198235,225.616318 91.731445,225.998093 86.548401,223.712814 
z"/>
<path fill="#000000" opacity="1.000000" stroke="none" 
	d="
M182.910751,315.254913 
	C177.073395,311.466705 176.766937,310.409119 179.576584,304.848511 
	C185.784119,305.954773 187.938324,309.072662 186.275345,314.179657 
	C185.652237,316.093201 184.604019,315.827118 182.910751,315.254913 
z"/>
<path fill="#000000" opacity="1.000000" stroke="none" 
	d="
M329.012848,227.988815 
	C330.883575,227.471466 330.825867,225.322601 332.118439,224.316132 
	C333.850128,226.635544 333.850128,226.635544 331.185669,238.716675 
	C331.896027,240.495560 334.044952,239.061737 335.086395,240.520126 
	C334.907532,240.817551 334.776184,241.351608 334.452972,241.522293 
	C332.302582,242.657867 330.430145,242.533920 328.804626,240.419418 
	C327.271423,238.424973 326.287720,236.344330 327.921570,234.128754 
	C329.195587,232.401093 329.917786,230.772491 329.066650,228.345001 
	C329.000549,227.999435 329.012848,227.988815 329.012848,227.988815 
z"/>
<path fill="#000000" opacity="1.000000" stroke="none" 
	d="
M243.340164,132.833588 
	C240.595200,130.915619 239.075150,128.726822 238.962830,125.686745 
	C244.681259,124.343117 248.154343,126.033813 250.867508,131.380463 
	C248.594559,132.570465 246.869705,135.702988 243.340164,132.833588 
z"/>
<path fill="#000000" opacity="1.000000" stroke="none" 
	d="
M118.727692,295.364380 
	C116.491310,299.508545 114.218262,303.086182 108.361046,304.294800 
	C110.282684,302.131653 111.512230,300.747589 112.765732,299.336548 
	C111.595520,297.337219 109.150620,298.714783 107.692543,296.952942 
	C109.685562,293.504242 113.223724,292.721375 116.757248,292.164429 
	C118.784904,291.844849 119.378098,293.160339 118.727692,295.364380 
z"/>
<path fill="#000000" opacity="1.000000" stroke="none" 
	d="
M294.168610,275.667114 
	C291.405243,276.175293 288.486145,277.349152 287.933258,273.594849 
	C287.373688,269.795044 289.017578,267.273254 293.731628,266.890015 
	C292.883575,271.738190 296.553040,270.908203 299.472076,271.266266 
	C299.003906,274.378754 296.591431,274.736450 294.168610,275.667114 
z"/>
<path fill="#000000" opacity="1.000000" stroke="none" 
	d="
M152.977570,338.698425 
	C148.062820,340.924011 143.797409,341.101196 139.968124,336.534454 
	C143.902481,333.147217 147.928192,332.902496 152.149277,334.855133 
	C153.548767,335.502594 155.491211,336.486206 152.977570,338.698425 
z"/>
<path fill="#000000" opacity="1.000000" stroke="none" 
	d="
M160.921875,204.220795 
	C163.140182,201.923050 165.139801,200.450027 167.722336,203.137939 
	C163.538330,209.720840 155.463669,211.993210 150.526733,207.729294 
	C153.854446,206.093246 157.693634,206.481476 160.921875,204.220795 
z"/>
<path fill="#000000" opacity="1.000000" stroke="none" 
	d="
M313.836670,203.834900 
	C320.431580,206.771912 320.615662,207.285889 317.542297,213.424973 
	C314.493530,212.802094 312.208008,211.033035 310.643524,208.421967 
	C308.764038,205.285278 309.358978,203.421219 313.836670,203.834900 
z"/>
<path fill="#000000" opacity="1.000000" stroke="none" 
	d="
M328.978760,112.992859 
	C330.009003,116.032364 332.479126,118.839325 330.631317,122.406090 
	C330.017975,123.590027 329.445618,124.969986 327.836121,124.865082 
	C326.323700,124.766518 325.328644,123.508400 325.187317,122.245270 
	C324.856354,119.287102 324.578064,116.246849 324.913116,113.312302 
	C325.232788,110.512581 326.997772,111.491348 328.738190,112.859177 
	C329.025330,113.049805 328.996063,113.010315 328.978760,112.992859 
z"/>
<path fill="#000000" opacity="1.000000" stroke="none" 
	d="
M318.702759,230.060272 
	C321.319031,232.333847 321.762695,234.968552 321.516449,237.871185 
	C315.603729,237.854477 312.266296,234.037933 313.032104,228.277618 
	C315.195618,227.485580 316.750397,228.879074 318.702759,230.060272 
z"/>
<path fill="#000000" opacity="1.000000" stroke="none" 
	d="
M197.097107,308.746155 
	C195.603851,313.709595 193.337265,311.651093 191.335770,309.726105 
	C189.210526,307.682098 189.188644,305.012390 189.761459,302.315887 
	C189.999863,301.193542 190.767624,300.514343 191.904984,300.796692 
	C194.576706,301.459991 196.002502,303.435059 196.785080,305.923309 
	C197.028091,306.695923 197.034042,307.543091 197.097107,308.746155 
z"/>
<path fill="#000000" opacity="1.000000" stroke="none" 
	d="
M217.894592,139.352234 
	C217.604752,141.658997 217.230804,143.587524 216.799469,145.811966 
	C212.976334,145.969345 210.450485,144.147766 209.219803,140.838654 
	C208.313309,138.401199 210.958374,138.044556 212.294586,137.057220 
	C214.980225,135.072784 216.501678,136.800476 217.894592,139.352234 
z"/>
<path fill="#000000" opacity="1.000000" stroke="none" 
	d="
M151.481140,171.210358 
	C154.879395,171.010742 154.726639,167.722183 156.428436,166.083206 
	C158.807449,169.786407 157.578842,173.617203 152.432495,178.151199 
	C148.506714,175.961426 147.728790,172.424744 147.789047,168.287613 
	C150.292374,168.077286 150.009796,170.366791 151.481140,171.210358 
z"/>
<path fill="#000000" opacity="1.000000" stroke="none" 
	d="
M201.858231,235.975586 
	C200.297440,236.376846 198.841202,237.397217 198.051559,235.632339 
	C197.216812,233.766632 198.766891,233.177444 200.014450,232.249634 
	C202.267410,230.574081 206.003525,230.098694 204.737640,225.442749 
	C204.217178,223.528458 206.918915,223.729172 208.490921,223.757446 
	C209.686188,229.355209 208.150223,232.220779 201.858231,235.975586 
z"/>
<path fill="#000000" opacity="1.000000" stroke="none" 
	d="
M206.619919,93.775330 
	C208.935501,99.537735 208.832230,100.594925 205.538574,104.629570 
	C204.030914,102.206390 202.410812,99.982155 201.204163,97.552582 
	C200.074951,95.278969 201.386688,93.289444 203.054810,91.910866 
	C204.784119,90.481743 205.600403,92.247215 206.619919,93.775330 
z"/>
<path fill="#000000" opacity="1.000000" stroke="none" 
	d="
M155.118378,196.864197 
	C147.910019,202.114944 142.555725,202.318802 136.827744,196.887787 
	C142.352478,197.514145 147.004120,197.807190 151.061234,195.054977 
	C151.674561,194.638916 152.639587,194.590164 153.431091,194.624054 
	C154.558197,194.672348 155.184921,195.406006 155.118378,196.864197 
z"/>
<path fill="#000000" opacity="1.000000" stroke="none" 
	d="
M67.018372,208.707123 
	C70.912071,208.200592 74.356552,207.972244 76.055191,212.386002 
	C72.983788,214.838272 69.812996,215.571243 66.306824,213.944473 
	C65.120186,213.393921 63.814106,212.636261 63.829422,211.104797 
	C63.846657,209.381531 65.518005,209.325287 67.018372,208.707123 
z"/>
<path fill="#000000" opacity="1.000000" stroke="none" 
	d="
M142.770859,153.893387 
	C144.483414,155.835342 142.014252,161.661484 148.005447,158.558411 
	C148.213440,159.242935 148.452225,159.592178 148.378479,159.853134 
	C147.572449,162.705673 146.598007,166.777695 143.262466,165.846176 
	C139.836380,164.889359 139.655884,160.781372 140.632767,157.313797 
	C140.991364,156.040924 141.331345,154.751556 142.770859,153.893387 
z"/>
<path fill="#000000" opacity="1.000000" stroke="none" 
	d="
M99.006577,294.921143 
	C95.699753,293.693451 93.474243,296.398621 90.650948,296.524872 
	C93.081360,291.174530 98.483139,289.353027 105.913376,291.487152 
	C104.949074,295.106354 103.730881,297.787720 99.006577,294.921143 
z"/>
<path fill="#000000" opacity="1.000000" stroke="none" 
	d="
M150.544495,354.449280 
	C148.403320,354.415649 146.510498,354.588989 145.278915,352.998810 
	C144.853622,351.765411 145.485153,350.892029 146.131744,350.200867 
	C148.277939,347.906708 151.389374,344.510559 153.874161,346.800781 
	C156.611435,349.323730 153.318298,352.297455 150.544495,354.449280 
z"/>
<path fill="#000000" opacity="1.000000" stroke="none" 
	d="
M341.778809,209.145081 
	C342.501556,215.208069 337.619354,218.991257 336.511841,224.862122 
	C332.661621,220.058029 335.169861,213.247818 341.778809,209.145081 
z"/>
<path fill="#000000" opacity="1.000000" stroke="none" 
	d="
M265.295349,168.465515 
	C262.697632,168.818604 260.516632,169.010193 259.708405,166.157867 
	C259.272583,164.619843 258.188324,164.727158 256.931824,164.985565 
	C255.212204,165.339203 253.980835,164.855484 253.931442,162.821320 
	C259.007843,160.692947 263.651245,161.496780 266.512787,164.985306 
	C267.744690,166.487122 268.525726,167.905777 265.295349,168.465515 
z"/>
<path fill="#000000" opacity="1.000000" stroke="none" 
	d="
M234.022079,213.383026 
	C234.466965,219.130737 231.106125,222.888916 228.258011,227.270920 
	C225.344055,223.088058 229.011810,214.715790 234.022079,213.383026 
z"/>
<path fill="#000000" opacity="1.000000" stroke="none" 
	d="
M157.445984,291.262848 
	C162.574875,295.027069 162.442978,300.271790 157.468216,303.918243 
	C156.335602,297.347900 156.335602,297.347900 153.790253,296.062500 
	C153.980453,293.862366 155.460846,292.565765 157.445984,291.262848 
z"/>
<path fill="#000000" opacity="1.000000" stroke="none" 
	d="
M131.959946,216.814087 
	C132.326340,221.089264 129.179337,222.492096 126.371033,224.282578 
	C122.719109,219.917816 122.802315,217.039154 126.552307,212.738312 
	C127.967255,214.462555 126.590912,220.049500 131.959946,216.814087 
z"/>
<path fill="#000000" opacity="1.000000" stroke="none" 
	d="
M250.406357,139.269379 
	C251.548294,140.285172 252.586777,140.952255 253.150970,141.901291 
	C254.746063,144.584335 251.452438,146.377396 250.945084,145.758148 
	C248.692673,143.008896 243.236862,143.719238 243.136749,138.516068 
	C245.647156,136.995331 247.870560,137.946823 250.406357,139.269379 
z"/>
<path fill="#000000" opacity="1.000000" stroke="none" 
	d="
M132.147537,165.643951 
	C132.450027,169.411652 129.643387,169.078629 127.823067,168.989929 
	C123.901955,168.798889 123.968788,165.289825 122.944817,162.442566 
	C126.977676,160.936508 129.806824,162.156738 132.147537,165.643951 
z"/>
<path fill="#000000" opacity="1.000000" stroke="none" 
	d="
M163.965698,179.690887 
	C165.838074,175.671997 164.236542,171.995224 163.800308,167.753967 
	C167.920013,169.925018 168.585815,173.184067 168.217224,176.635239 
	C167.835602,180.208588 166.369034,183.300385 162.748795,185.089966 
	C161.410492,182.509583 163.338150,181.500916 163.965698,179.690887 
z"/>
<path fill="#000000" opacity="1.000000" stroke="none" 
	d="
M178.626129,133.872894 
	C179.622650,136.654984 179.126724,138.797760 177.190842,140.477371 
	C176.071594,141.448456 175.003738,140.846970 174.216721,139.876343 
	C172.511597,137.773453 172.176224,135.421173 173.302826,132.951385 
	C173.696808,132.087646 174.336700,131.336090 174.826889,130.590225 
	C177.156570,130.449295 177.688675,132.129639 178.626129,133.872894 
z"/>
<path fill="#000000" opacity="1.000000" stroke="none" 
	d="
M203.578552,276.489807 
	C206.093475,275.218872 203.395569,273.767670 204.225174,272.198578 
	C206.674896,272.378510 208.775208,273.242798 210.391449,275.258148 
	C206.604752,279.896332 200.719467,281.310852 195.604126,278.506714 
	C198.454849,277.806671 200.876282,277.212067 203.578552,276.489807 
z"/>
<path fill="#000000" opacity="1.000000" stroke="none" 
	d="
M112.963753,260.170776 
	C111.551628,258.983459 110.905869,257.794647 112.025208,256.534210 
	C113.161812,255.254318 114.438950,256.032745 115.587067,256.746002 
	C119.480751,259.164886 120.370468,262.662384 118.198357,267.571991 
	C114.513008,266.553314 116.505905,261.565765 112.963753,260.170776 
z"/>
<path fill="#000000" opacity="1.000000" stroke="none" 
	d="
M280.504913,195.531006 
	C283.182800,192.229889 285.849365,189.431625 290.562866,187.173386 
	C288.781708,193.919525 283.791565,196.278946 280.120728,200.078629 
	C278.915344,198.128723 279.898743,197.020660 280.504913,195.531006 
z"/>
<path fill="#000000" opacity="1.000000" stroke="none" 
	d="
M106.720703,187.711853 
	C107.246048,189.990875 107.983810,192.333206 105.150841,192.733047 
	C102.647278,193.086380 101.322609,191.325241 101.073990,188.876389 
	C100.914902,187.309341 100.096878,185.724213 101.142929,184.079407 
	C103.841904,183.701996 105.334229,185.296265 106.720703,187.711853 
z"/>
<path fill="#000000" opacity="1.000000" stroke="none" 
	d="
M341.496643,173.932007 
	C345.694672,173.222427 343.884277,177.795456 346.524628,178.319885 
	C342.872345,181.825165 341.429993,182.057785 336.584473,180.034668 
	C338.041534,177.924057 340.539246,176.634018 341.496643,173.932007 
z"/>
<path fill="#000000" opacity="1.000000" stroke="none" 
	d="
M294.138428,237.833344 
	C294.153137,240.296143 296.151917,240.329971 297.913757,240.912506 
	C295.572968,243.737442 293.046722,244.931168 290.358459,243.458664 
	C288.917542,242.669403 288.463837,240.239563 289.618652,238.568634 
	C290.619293,237.120804 291.858337,234.754440 294.138428,237.833344 
z"/>
<path fill="#000000" opacity="1.000000" stroke="none" 
	d="
M276.711639,137.719788 
	C273.811310,136.336548 273.047821,134.673096 274.715576,132.031143 
	C275.826569,130.271194 276.507812,128.239975 277.418945,126.248070 
	C280.089813,129.816010 279.869385,135.085220 276.711639,137.719788 
z"/>
<path fill="#000000" opacity="1.000000" stroke="none" 
	d="
M133.954987,228.779999 
	C136.754532,230.652924 135.816376,232.331741 134.064148,233.657440 
	C131.996613,235.221725 131.112076,233.381836 130.476974,231.891510 
	C129.096878,228.652908 129.372574,225.643509 132.066467,222.921097 
	C134.066971,224.568466 132.684875,226.883514 133.954987,228.779999 
z"/>
<path fill="#000000" opacity="1.000000" stroke="none" 
	d="
M144.778107,273.002380 
	C146.897629,272.610229 148.822449,272.711273 150.231415,271.288818 
	C152.779846,268.716003 154.130112,270.493286 155.705383,272.685120 
	C152.502808,275.723389 148.991913,276.409668 145.057297,275.250427 
	C143.904694,274.910858 143.375061,274.196869 144.778107,273.002380 
z"/>
<path fill="#000000" opacity="1.000000" stroke="none" 
	d="
M223.240143,134.510406 
	C224.456177,131.188400 224.456177,131.188400 227.038452,129.015762 
	C228.910950,130.901443 227.704544,133.830200 229.900208,135.921616 
	C227.021835,136.823166 224.297791,141.356827 223.240143,134.510406 
z"/>
<path fill="#000000" opacity="1.000000" stroke="none" 
	d="
M107.538780,262.603821 
	C104.789558,263.591278 103.164642,262.448639 101.558922,260.126740 
	C104.313881,259.287262 104.549332,256.605042 105.758820,254.604446 
	C109.172150,256.820923 109.253883,257.147400 107.538780,262.603821 
z"/>
<path fill="#000000" opacity="1.000000" stroke="none" 
	d="
M123.382347,330.565247 
	C120.441849,336.065857 113.981422,337.735260 108.191795,333.909729 
	C114.082703,334.057190 118.418709,331.583313 123.382347,330.565247 
z"/>
<path fill="#000000" opacity="1.000000" stroke="none" 
	d="
M238.990967,100.631866 
	C237.999100,101.461372 237.425461,102.402748 235.886475,102.162682 
	C235.627304,99.065903 237.497482,96.392616 237.937836,93.444061 
	C238.103058,92.337746 239.119629,91.841789 240.205429,92.008522 
	C241.644989,92.229568 242.009216,93.322914 241.835342,94.591202 
	C241.536942,96.767929 240.594177,98.676720 238.990967,100.631866 
z"/>
<path fill="#000000" opacity="1.000000" stroke="none" 
	d="
M348.697021,188.173645 
	C350.924622,186.798798 353.074615,185.760376 355.497345,184.590240 
	C356.719849,188.205124 355.370575,190.619858 352.729767,191.814926 
	C350.019043,193.041626 349.006042,190.865891 348.697021,188.173645 
z"/>
<path fill="#000000" opacity="1.000000" stroke="none" 
	d="
M211.628983,86.796463 
	C214.527573,89.356117 216.931442,91.827164 214.874283,95.844894 
	C209.605789,93.501259 208.240891,89.767479 211.628983,86.796463 
z"/>
<path fill="#000000" opacity="1.000000" stroke="none" 
	d="
M249.384033,151.818054 
	C246.924713,147.190521 250.403671,148.010986 252.348083,148.440628 
	C254.539978,148.924973 256.288361,150.582230 257.986633,152.431808 
	C254.830688,154.966507 252.253021,153.322632 249.384033,151.818054 
z"/>
<path fill="#000000" opacity="1.000000" stroke="none" 
	d="
M294.594727,110.361740 
	C294.823334,109.521706 294.837585,108.946556 295.122040,108.582489 
	C296.191833,107.213181 294.904114,103.413322 297.948944,104.480087 
	C300.606140,105.411034 299.392487,108.436638 298.573914,110.570457 
	C297.711304,112.819038 296.828949,113.475021 293.648254,114.906258 
	C292.951385,113.294762 294.209229,112.099564 294.594727,110.361740 
z"/>
<path fill="#000000" opacity="1.000000" stroke="none" 
	d="
M343.280396,226.366867 
	C342.134033,228.663406 342.109283,231.238724 339.724548,232.409149 
	C337.303986,227.878189 338.560730,224.653122 343.709259,222.168396 
	C345.346741,223.588028 343.723511,224.770782 343.280396,226.366867 
z"/>
<path fill="#000000" opacity="1.000000" stroke="none" 
	d="
M188.405716,145.238510 
	C189.588745,144.588318 190.604568,144.927521 190.276184,145.872665 
	C189.061996,149.367264 188.121201,152.736557 192.215576,156.086838 
	C185.911728,155.666946 184.896194,151.587402 188.405716,145.238510 
z"/>
<path fill="#000000" opacity="1.000000" stroke="none" 
	d="
M167.679016,294.503815 
	C171.754196,296.568420 172.085266,298.101837 169.239655,303.451233 
	C168.533844,300.017792 162.812744,298.919098 167.679016,294.503815 
z"/>
<path fill="#000000" opacity="1.000000" stroke="none" 
	d="
M284.506714,181.813522 
	C285.142487,179.939453 285.674225,178.432037 286.253082,176.791077 
	C289.706512,180.252411 289.339813,183.569458 285.387970,186.769104 
	C283.051788,185.674103 283.908142,183.886963 284.506714,181.813522 
z"/>
<path fill="#000000" opacity="1.000000" stroke="none" 
	d="
M174.173462,163.140366 
	C171.865494,162.789505 169.865829,162.594864 168.546982,159.847931 
	C172.554947,160.332535 176.273621,157.997467 180.344666,160.320786 
	C178.506714,162.965683 176.462936,162.871750 174.173462,163.140366 
z"/>
<path fill="#000000" opacity="1.000000" stroke="none" 
	d="
M192.033661,176.910980 
	C193.623917,177.026917 194.987579,176.525925 196.093124,177.677368 
	C191.031082,181.357040 187.550125,180.879929 184.602036,176.097610 
	C187.204468,174.498154 189.299286,177.216797 192.033661,176.910980 
z"/>
<path fill="#000000" opacity="1.000000" stroke="none" 
	d="
M177.544647,168.951660 
	C179.315445,167.931061 187.463364,168.514465 189.530746,169.857040 
	C185.151382,172.806595 181.415970,172.053116 177.544647,168.951660 
z"/>
<path fill="#000000" opacity="1.000000" stroke="none" 
	d="
M201.131027,161.807281 
	C202.167633,165.081161 203.300095,168.011353 203.243698,171.551987 
	C200.454971,171.378540 199.600403,170.189056 199.403305,167.584702 
	C199.038666,162.766678 198.831100,162.782379 201.131027,161.807281 
z"/>
<path fill="#000000" opacity="1.000000" stroke="none" 
	d="
M87.427147,271.740479 
	C91.103294,272.262238 93.805634,267.729950 98.001770,270.216858 
	C94.931961,273.726349 91.407524,274.275024 87.747299,274.093262 
	C86.641090,274.038361 84.614494,273.345947 87.427147,271.740479 
z"/>
<path fill="#000000" opacity="1.000000" stroke="none" 
	d="
M306.305847,164.619858 
	C303.255829,165.820038 302.782135,163.704269 301.887085,161.890564 
	C303.525879,160.013794 305.258698,158.681747 307.682434,158.374695 
	C308.866028,160.766571 308.009949,162.628799 306.305847,164.619858 
z"/>
<path fill="#000000" opacity="1.000000" stroke="none" 
	d="
M191.167358,165.502243 
	C188.117065,162.648972 184.762787,160.491455 182.266235,155.827286 
	C187.842300,158.804169 191.299011,162.280441 194.637146,166.105057 
	C192.930817,167.612198 192.325104,166.041138 191.167358,165.502243 
z"/>
<path fill="#000000" opacity="1.000000" stroke="none" 
	d="
M282.924255,203.924347 
	C284.637695,203.000870 285.831818,201.627029 288.151306,202.284042 
	C286.607025,205.720490 284.416077,207.987686 280.567596,208.892715 
	C279.548798,206.176270 281.478485,205.334549 282.924255,203.924347 
z"/>
<path fill="#000000" opacity="1.000000" stroke="none" 
	d="
M122.717484,283.031891 
	C121.077812,283.687683 119.846535,284.739288 117.692230,284.106567 
	C119.658859,282.114563 118.346382,280.362488 117.204277,278.545013 
	C123.182991,278.559052 124.266312,279.434509 122.717484,283.031891 
z"/>
<path fill="#000000" opacity="1.000000" stroke="none" 
	d="
M304.226135,173.922546 
	C302.351715,178.040146 299.422882,181.033508 295.374481,182.890686 
	C297.362701,178.956970 300.022766,175.684219 304.226135,173.922546 
z"/>
<path fill="#000000" opacity="1.000000" stroke="none" 
	d="
M243.602173,167.568359 
	C244.033813,165.087723 243.011917,162.589890 245.262833,160.359192 
	C246.388428,162.653549 247.360138,164.634247 248.434906,166.824997 
	C247.050980,168.101074 245.873856,169.927124 243.602173,167.568359 
z"/>
<path fill="#000000" opacity="1.000000" stroke="none" 
	d="
M217.695251,171.064850 
	C217.187714,175.214111 215.650803,178.639084 212.311584,181.076324 
	C212.818207,177.038651 214.345123,173.520691 217.695251,171.064850 
z"/>
<path fill="#000000" opacity="1.000000" stroke="none" 
	d="
M202.506439,202.464813 
	C202.565231,200.532181 202.565231,198.935776 202.565231,197.110870 
	C206.150772,201.111160 206.011047,203.230865 202.113113,206.901779 
	C200.875183,205.407822 202.241287,204.145645 202.506439,202.464813 
z"/>
<path fill="#000000" opacity="1.000000" stroke="none" 
	d="
M328.994446,228.004044 
	C326.115448,226.070358 323.854218,223.855194 325.219452,219.602203 
	C329.514282,220.829926 328.399017,224.505936 329.086731,227.590424 
	C329.012848,227.988815 329.000549,227.999435 328.994446,228.004044 
z"/>
<path fill="#000000" opacity="1.000000" stroke="none" 
	d="
M283.086365,181.723663 
	C278.848969,180.401184 281.031067,177.865143 281.620605,175.371689 
	C284.862030,177.043518 284.862030,177.043518 283.086365,181.723663 
z"/>
</svg>